<?xml version="1.0" encoding="UTF-8" standalone="no"?>
<svg
   xmlns:dc="http://purl.org/dc/elements/1.1/"
   xmlns:cc="http://creativecommons.org/ns#"
   xmlns:rdf="http://www.w3.org/1999/02/22-rdf-syntax-ns#"
   xmlns:svg="http://www.w3.org/2000/svg"
   xmlns="http://www.w3.org/2000/svg"
   xmlns:sodipodi="http://sodipodi.sourceforge.net/DTD/sodipodi-0.dtd"
   xmlns:inkscape="http://www.inkscape.org/namespaces/inkscape"
   inkscape:version="1.0 (4035a4f, 2020-05-01)"
   sodipodi:docname="intro-nodes.svg"
   version="1.1"
   viewBox="0 0 612 433.473"
   height="152.92mm"
   width="215.9mm"
   data-name="Layer 1"
   id="Layer_1">
  <metadata
     id="metadata733">
    <rdf:RDF>
      <cc:Work
         rdf:about="">
        <dc:format>image/svg+xml</dc:format>
        <dc:type
           rdf:resource="http://purl.org/dc/dcmitype/StillImage" />
        <dc:title></dc:title>
        <dc:subject>
          <rdf:Bag>
            <rdf:li>Jenkins</rdf:li>
          </rdf:Bag>
        </dc:subject>
      </cc:Work>
    </rdf:RDF>
  </metadata>
  <sodipodi:namedview
     inkscape:current-layer="Layer_1"
     inkscape:window-maximized="0"
     inkscape:window-y="23"
     inkscape:window-x="0"
     inkscape:cy="288.98267"
     inkscape:cx="407.99999"
     inkscape:zoom="0.61397061"
     showgrid="false"
     id="namedview731"
     inkscape:window-height="480"
     inkscape:window-width="987"
     inkscape:pageshadow="2"
     inkscape:pageopacity="0"
     guidetolerance="10"
     gridtolerance="10"
     objecttolerance="10"
     borderopacity="1"
     bordercolor="#666666"
     pagecolor="#ffffff" />
  <defs
     id="defs12">
    <style
       id="style10">
      .cls-1 {
        fill: #dbe8f5;
      }

      .cls-2 {
        fill: #e8e8e8;
      }

      .cls-10, .cls-11, .cls-12, .cls-14, .cls-3, .cls-5 {
        fill: none;
      }

      .cls-3 {
        stroke: #4c4c4c;
      }

      .cls-3, .cls-5, .cls-7, .cls-8 {
        stroke-miterlimit: 10;
      }

      .cls-4 {
        fill: #4c4c4c;
      }

      .cls-5 {
        stroke: #06c;
      }

      .cls-6 {
        fill: #06c;
      }

      .cls-13, .cls-7, .cls-9 {
        fill: #fff;
      }

      .cls-7 {
        stroke: #a1c2e7;
      }

      .cls-8 {
        fill: #f0f0f0;
        stroke: #969696;
      }

      .cls-10, .cls-11, .cls-12, .cls-13, .cls-14 {
        stroke: #5b5b5b;
        stroke-linecap: round;
        stroke-linejoin: round;
      }

      .cls-10, .cls-11, .cls-12 {
        stroke-width: 2px;
      }

      .cls-11 {
        stroke-dasharray: 0 5.123;
      }

      .cls-12 {
        stroke-dasharray: 0 4.43;
      }

      .cls-13, .cls-14 {
        stroke-width: 1.5px;
      }
    </style>
  </defs>
  <polygon
     id="polygon14"
     points="486.749 168.64 15.232 168.64 15.232 28.026 486.749 28.026 486.749 105.356 486.749 168.64"
     class="cls-1" />
  <rect
     id="rect16"
     height="137.2"
     width="144.589"
     y="190.642"
     x="15.232"
     class="cls-2" />
  <rect
     id="rect18"
     height="137.2"
     width="139.515"
     y="190.642"
     x="181.823"
     class="cls-2" />
  <rect
     id="rect20"
     height="137.2"
     width="143.41"
     y="190.642"
     x="343.339"
     class="cls-2" />
  <g
     id="g26">
    <line
       id="line22"
       y2="183.466"
       x2="90.653"
       y1="154.067"
       x1="90.653"
       class="cls-3" />
    <polygon
       id="polygon24"
       points="85.667 182.007 90.652 190.642 95.639 182.007 85.667 182.007"
       class="cls-4" />
  </g>
  <g
     id="g32">
    <line
       id="line28"
       y2="183.466"
       x2="199.246"
       y1="154.067"
       x1="199.246"
       class="cls-3" />
    <polygon
       id="polygon30"
       points="194.26 182.007 199.246 190.642 204.232 182.007 194.26 182.007"
       class="cls-4" />
  </g>
  <g
     id="g38">
    <line
       id="line34"
       y2="357.004"
       x2="87.526"
       y1="327.606"
       x1="87.526"
       class="cls-5" />
    <polygon
       id="polygon36"
       points="82.541 355.545 87.526 364.18 92.512 355.545 82.541 355.545"
       class="cls-6" />
  </g>
  <g
     id="g44">
    <line
       id="line40"
       y2="357.004"
       x2="251.58"
       y1="327.606"
       x1="251.58"
       class="cls-5" />
    <polygon
       id="polygon42"
       points="246.594 355.545 251.58 364.18 256.566 355.545 246.594 355.545"
       class="cls-6" />
  </g>
  <g
     id="g50">
    <line
       id="line46"
       y2="357.004"
       x2="415.044"
       y1="327.606"
       x1="415.044"
       class="cls-5" />
    <polygon
       id="polygon48"
       points="410.058 355.545 415.044 364.18 420.03 355.545 410.058 355.545"
       class="cls-6" />
  </g>
  <rect
     id="rect52"
     height="61.953"
     width="96.349"
     y="92.114"
     x="29.805"
     class="cls-7" />
  <rect
     id="rect54"
     height="61.953"
     width="96.349"
     y="92.114"
     x="138.398"
     class="cls-7" />
  <rect
     id="rect56"
     height="61.953"
     width="96.349"
     y="92.114"
     x="246.991"
     class="cls-7" />
  <rect
     id="rect58"
     height="61.953"
     width="96.349"
     y="92.114"
     x="375.828"
     class="cls-8" />
  <rect
     id="rect60"
     height="61.953"
     width="96.349"
     y="243.767"
     x="366.87"
     class="cls-8" />
  <g
     id="g66">
    <line
       id="line62"
       y2="123.091"
       x2="368.652"
       y1="123.091"
       x1="344.035"
       class="cls-3" />
    <polygon
       id="polygon64"
       points="367.193 128.077 375.828 123.091 367.193 118.105 367.193 128.077"
       class="cls-4" />
  </g>
  <g
     id="g84">
    <path
       id="path68"
       d="M58.056,125.874l-1.518-7.039h.784l1.2,5.813,1.74-5.813h.754l1.74,5.792,1.206-5.792h.754l-1.518,7.039H62.41l-1.78-5.963-1.79,5.963Z" />
    <path
       id="path70"
       d="M67.564,120.736a2.62,2.62,0,1,1-2.574,2.614A2.567,2.567,0,0,1,67.564,120.736Zm1.83,2.614a1.839,1.839,0,1,0-1.83,1.961A1.872,1.872,0,0,0,69.394,123.35Z" />
    <path
       id="path72"
       d="M71.16,120.837H71.9v.713a1.574,1.574,0,0,1,1.408-.824,1.385,1.385,0,0,1,.473.07v.684a1.646,1.646,0,0,0-.523-.091,1.428,1.428,0,0,0-1.358,1.036v3.449H71.16Z" />
    <path
       id="path74"
       d="M74.638,118.835l.744-.171v4.445l2.635-2.272h.9l-2.765,2.393,2.9,2.644H78.037l-2.655-2.413v2.413h-.744Z" />
    <path
       id="path76"
       d="M81.6,125.965a2.568,2.568,0,0,1-2.594-2.615,2.52,2.52,0,0,1,2.483-2.594,2.472,2.472,0,0,1,2.383,2.594v.232H79.744a1.892,1.892,0,0,0,1.89,1.729,2.194,2.194,0,0,0,1.388-.463l.462.493A2.983,2.983,0,0,1,81.6,125.965Zm-1.84-2.977h3.368a1.687,1.687,0,0,0-3.368,0Z" />
    <path
       id="path78"
       d="M84.909,120.837h.744v.713a1.572,1.572,0,0,1,1.407-.824,1.381,1.381,0,0,1,.473.07v.684a1.641,1.641,0,0,0-.523-.091,1.426,1.426,0,0,0-1.357,1.036v3.449h-.744Z" />
    <path
       id="path80"
       d="M91.341,123.672H90.215v-.583H91.5l.423-1.468H90.718v-.584h1.367l.634-2.2H93.4l-.634,2.2H94.76l.634-2.2h.684l-.634,2.2H96.57v.584H95.283l-.422,1.468h1.206v.583H94.7l-.634,2.2h-.683l.633-2.2H92.025l-.633,2.2h-.684Zm2.836-.583.423-1.468H92.608l-.422,1.468Z" />
    <path
       id="path82"
       d="M99.07,125.874h-.734V119.61l-1.186.523v-.674l1.448-.624h.472Z" />
  </g>
  <g
     id="g104">
    <path
       id="path86"
       d="M64.91,415.953l-1.518-7.039h.784l1.2,5.813,1.739-5.813h.754l1.74,5.792,1.206-5.792h.755l-1.519,7.039h-.784l-1.78-5.963-1.79,5.963Z" />
    <path
       id="path88"
       d="M74.418,410.815a2.62,2.62,0,1,1-2.574,2.614A2.567,2.567,0,0,1,74.418,410.815Zm1.83,2.614a1.839,1.839,0,1,0-1.83,1.961A1.872,1.872,0,0,0,76.248,413.429Z" />
    <path
       id="path90"
       d="M78.014,410.915h.744v.714a1.574,1.574,0,0,1,1.408-.824,1.385,1.385,0,0,1,.473.07v.684a1.617,1.617,0,0,0-.523-.09,1.426,1.426,0,0,0-1.358,1.035v3.449h-.744Z" />
    <path
       id="path92"
       d="M81.492,408.914l.744-.171v4.445l2.635-2.273h.9l-2.765,2.394,2.9,2.644H84.891l-2.655-2.413v2.413h-.744Z" />
    <path
       id="path94"
       d="M86.316,414.777a2.412,2.412,0,0,0,1.639.673c.8,0,1.367-.372,1.367-.9,0-.432-.291-.673-.935-.764l-.875-.121c-1-.15-1.488-.592-1.488-1.357,0-.845.785-1.468,1.89-1.468a3.22,3.22,0,0,1,1.981.663l-.392.5a2.822,2.822,0,0,0-1.629-.562c-.693,0-1.166.341-1.166.834,0,.432.271.643.935.744l.875.121c1,.141,1.508.593,1.508,1.367,0,.875-.884,1.539-2.041,1.539a3.068,3.068,0,0,1-2.122-.784Z" />
    <path
       id="path96"
       d="M90.858,410.915h.735v.543a2.3,2.3,0,0,1,1.629-.623,2.6,2.6,0,1,1-1.62,4.615v2.565h-.744Zm.744,1.278v2.494a2,2,0,0,0,1.549.693,1.948,1.948,0,0,0,0-3.892A1.955,1.955,0,0,0,91.6,412.193Z" />
    <path
       id="path98"
       d="M96.566,414.526c0-.946.775-1.539,2.012-1.539a3.268,3.268,0,0,1,1.478.342v-.664c0-.8-.463-1.217-1.338-1.217a3.338,3.338,0,0,0-1.578.443l-.282-.573a4.278,4.278,0,0,1,1.931-.5c1.277,0,1.991.624,1.991,1.75v3.388h-.724v-.493a2.4,2.4,0,0,1-1.629.584C97.321,416.044,96.566,415.431,96.566,414.526Zm1.992.934a2.008,2.008,0,0,0,1.5-.583v-.945a2.467,2.467,0,0,0-1.458-.4c-.8,0-1.317.383-1.317.976C97.281,415.069,97.8,415.46,98.558,415.46Z" />
    <path
       id="path100"
       d="M105.845,414.737l.463.5a2.817,2.817,0,0,1-1.951.805,2.615,2.615,0,0,1,0-5.229,2.863,2.863,0,0,1,1.971.8l-.473.543a2.067,2.067,0,0,0-1.488-.655,1.938,1.938,0,0,0,.01,3.872A2.054,2.054,0,0,0,105.845,414.737Z" />
    <path
       id="path102"
       d="M109.342,416.044a2.568,2.568,0,0,1-2.594-2.615,2.521,2.521,0,0,1,2.483-2.594,2.473,2.473,0,0,1,2.383,2.594v.231h-4.133a1.893,1.893,0,0,0,1.891,1.73,2.2,2.2,0,0,0,1.388-.462l.462.492A2.977,2.977,0,0,1,109.342,416.044Zm-1.841-2.976h3.369a1.688,1.688,0,0,0-3.369,0Z" />
  </g>
  <g
     id="g122">
    <path
       id="path106"
       d="M165.377,125.874l-1.518-7.039h.784l1.2,5.813,1.74-5.813h.754l1.74,5.792,1.206-5.792h.755l-1.519,7.039h-.784l-1.78-5.963-1.79,5.963Z" />
    <path
       id="path108"
       d="M174.886,120.736a2.62,2.62,0,1,1-2.575,2.614A2.567,2.567,0,0,1,174.886,120.736Zm1.83,2.614a1.84,1.84,0,1,0-1.83,1.961A1.872,1.872,0,0,0,176.716,123.35Z" />
    <path
       id="path110"
       d="M178.482,120.837h.744v.713a1.573,1.573,0,0,1,1.408-.824,1.375,1.375,0,0,1,.472.07v.684a1.637,1.637,0,0,0-.523-.091,1.427,1.427,0,0,0-1.357,1.036v3.449h-.744Z" />
    <path
       id="path112"
       d="M181.959,118.835l.745-.171v4.445l2.634-2.272h.905l-2.765,2.393,2.9,2.644h-1.016l-2.654-2.413v2.413h-.745Z" />
    <path
       id="path114"
       d="M188.926,125.965a2.568,2.568,0,0,1-2.595-2.615,2.521,2.521,0,0,1,2.484-2.594,2.472,2.472,0,0,1,2.383,2.594v.232h-4.133a1.893,1.893,0,0,0,1.891,1.729,2.2,2.2,0,0,0,1.388-.463l.462.493A2.983,2.983,0,0,1,188.926,125.965Zm-1.841-2.977h3.369a1.688,1.688,0,0,0-3.369,0Z" />
    <path
       id="path116"
       d="M192.23,120.837h.745v.713a1.571,1.571,0,0,1,1.407-.824,1.381,1.381,0,0,1,.473.07v.684a1.646,1.646,0,0,0-.523-.091,1.426,1.426,0,0,0-1.357,1.036v3.449h-.745Z" />
    <path
       id="path118"
       d="M198.663,123.672h-1.126v-.583h1.287l.423-1.468h-1.208v-.584h1.368l.634-2.2h.684l-.634,2.2h1.991l.634-2.2h.683l-.633,2.2h1.126v.584h-1.287l-.422,1.468h1.206v.583h-1.367l-.634,2.2h-.683l.633-2.2h-1.991l-.634,2.2h-.683Zm2.836-.583.422-1.468H199.93l-.422,1.468Z" />
    <path
       id="path120"
       d="M204.562,125.331l2.665-2.564c.935-.915,1.216-1.358,1.216-1.991a1.464,1.464,0,0,0-1.609-1.388,2.8,2.8,0,0,0-1.95.865l-.433-.513a3.53,3.53,0,0,1,2.394-.995,2.1,2.1,0,0,1,2.322,1.991c0,.834-.3,1.357-1.458,2.453l-2.142,2.042H209.3v.643h-4.736Z" />
  </g>
  <g
     id="g140">
    <path
       id="path124"
       d="M273.769,125.874l-1.518-7.039h.785l1.2,5.813,1.74-5.813h.754l1.74,5.792,1.206-5.792h.755l-1.519,7.039h-.784l-1.78-5.963-1.79,5.963Z" />
    <path
       id="path126"
       d="M283.278,120.736a2.62,2.62,0,1,1-2.574,2.614A2.567,2.567,0,0,1,283.278,120.736Zm1.83,2.614a1.84,1.84,0,1,0-1.83,1.961A1.872,1.872,0,0,0,285.108,123.35Z" />
    <path
       id="path128"
       d="M286.874,120.837h.744v.713a1.574,1.574,0,0,1,1.408-.824,1.375,1.375,0,0,1,.472.07v.684a1.635,1.635,0,0,0-.522-.091,1.427,1.427,0,0,0-1.358,1.036v3.449h-.744Z" />
    <path
       id="path130"
       d="M290.352,118.835l.744-.171v4.445l2.634-2.272h.906l-2.766,2.393,2.9,2.644h-1.016l-2.655-2.413v2.413h-.744Z" />
    <path
       id="path132"
       d="M297.317,125.965a2.567,2.567,0,0,1-2.593-2.615,2.52,2.52,0,0,1,2.483-2.594,2.472,2.472,0,0,1,2.384,2.594v.232h-4.133a1.892,1.892,0,0,0,1.89,1.729,2.191,2.191,0,0,0,1.387-.463l.463.493A2.984,2.984,0,0,1,297.317,125.965Zm-1.84-2.977h3.37a1.689,1.689,0,0,0-3.37,0Z" />
    <path
       id="path134"
       d="M300.623,120.837h.744v.713a1.572,1.572,0,0,1,1.407-.824,1.377,1.377,0,0,1,.473.07v.684a1.645,1.645,0,0,0-.522-.091,1.426,1.426,0,0,0-1.358,1.036v3.449h-.744Z" />
    <path
       id="path136"
       d="M307.054,123.672h-1.125v-.583h1.286l.422-1.468h-1.206v-.584H307.8l.634-2.2h.684l-.634,2.2h1.991l.634-2.2h.683l-.633,2.2h1.127v.584H311l-.423,1.468h1.207v.583h-1.368l-.633,2.2H309.1l.634-2.2h-1.991l-.633,2.2h-.685Zm2.836-.583.422-1.468h-1.99l-.423,1.468Z" />
    <path
       id="path138"
       d="M315.377,125.975a3.634,3.634,0,0,1-2.574-1l.492-.482a2.807,2.807,0,0,0,2.082.834c1.066,0,1.81-.573,1.81-1.4,0-.764-.724-1.3-1.79-1.3H314.8v-.613h.553a1.441,1.441,0,0,0,1.558-1.378,1.421,1.421,0,0,0-1.588-1.267,2.568,2.568,0,0,0-1.941.855l-.493-.493a3.409,3.409,0,0,1,2.454-1.015,2.067,2.067,0,0,1,2.3,1.9,1.776,1.776,0,0,1-1.207,1.629,1.831,1.831,0,0,1,1.488,1.7C317.931,125.12,316.865,125.975,315.377,125.975Z" />
  </g>
  <g
     id="g180">
    <path
       id="path142"
       d="M417.445,106.507H420.5a2.048,2.048,0,1,1,0,4.072h-2.282v2.967h-.774Zm.774.693v2.7h2.222c.956,0,1.558-.522,1.558-1.357s-.6-1.348-1.558-1.348Z" />
    <path
       id="path144"
       d="M423.675,107.04a.5.5,0,0,1,.5-.5.5.5,0,0,1,.5.5.505.505,0,0,1-.5.5A.512.512,0,0,1,423.675,107.04Zm.875,6.506h-.744v-5.038h.744Z" />
    <path
       id="path146"
       d="M425.817,108.508h.733v.543a2.3,2.3,0,0,1,1.629-.624,2.6,2.6,0,1,1-1.618,4.616v2.564h-.744Zm.744,1.277v2.494a1.992,1.992,0,0,0,1.548.693,1.947,1.947,0,0,0,0-3.891A1.951,1.951,0,0,0,426.561,109.785Z" />
    <path
       id="path148"
       d="M434.119,113.636a2.567,2.567,0,0,1-2.594-2.614,2.521,2.521,0,0,1,2.483-2.595,2.473,2.473,0,0,1,2.384,2.595v.231h-4.133a1.894,1.894,0,0,0,1.89,1.73,2.194,2.194,0,0,0,1.388-.463l.462.493A2.982,2.982,0,0,1,434.119,113.636Zm-1.84-2.976h3.369a1.688,1.688,0,0,0-3.369,0Z" />
    <path
       id="path150"
       d="M438.168,113.546h-.744v-7.039l.744-.171Z" />
    <path
       id="path152"
       d="M439.3,107.04a.5.5,0,0,1,.5-.5.5.5,0,0,1,.5.5.505.505,0,0,1-.5.5A.512.512,0,0,1,439.3,107.04Zm.875,6.506h-.744v-5.038h.744Z" />
    <path
       id="path154"
       d="M441.444,108.508h.744v.593a1.992,1.992,0,0,1,1.589-.694,1.855,1.855,0,0,1,1.94,1.951v3.188h-.734v-3.037a1.326,1.326,0,0,0-1.407-1.448,1.566,1.566,0,0,0-1.388.774v3.711h-.744Z" />
    <path
       id="path156"
       d="M449.324,113.636a2.567,2.567,0,0,1-2.594-2.614,2.521,2.521,0,0,1,2.483-2.595,2.473,2.473,0,0,1,2.384,2.595v.231h-4.133a1.894,1.894,0,0,0,1.89,1.73,2.194,2.194,0,0,0,1.388-.463l.463.493A2.987,2.987,0,0,1,449.324,113.636Zm-1.84-2.976h3.369a1.688,1.688,0,0,0-3.369,0Z" />
    <path
       id="path158"
       d="M416.962,120.5l.8-2.121h.584l-.584,2.121Z" />
    <path
       id="path160"
       d="M420.159,119.462v6.144h-.724v-7.039h1.086l2.4,5,2.394-5H426.4v7.039h-.735v-6.154l-2.755,5.651Z" />
    <path
       id="path162"
       d="M429,118.376l-.8,2.121h-.583l.583-2.121Z" />
    <path
       id="path164"
       d="M420.3,130.627c1.358,0,2.223.7,2.223,1.81A1.634,1.634,0,0,1,421.447,134a1.755,1.755,0,0,1,1.367,1.689c0,1.207-.945,1.981-2.393,1.981h-2.976v-7.039Zm-2.081.674v2.393h2.041c.915,0,1.5-.462,1.5-1.2s-.583-1.2-1.5-1.2Zm3.811,4.364c0-.8-.654-1.327-1.669-1.327h-2.142v2.654h2.142C421.376,136.992,422.03,136.469,422.03,135.665Z" />
    <path
       id="path166"
       d="M424.521,135.665a1.326,1.326,0,0,0,1.407,1.448,1.554,1.554,0,0,0,1.388-.784v-3.7h.744v5.037h-.744v-.583a2,2,0,0,1-1.578.684,1.858,1.858,0,0,1-1.951-1.951v-3.187h.734Z" />
    <path
       id="path168"
       d="M429.193,131.16a.5.5,0,0,1,.5-.5.5.5,0,0,1,.5.5.5.5,0,0,1-.5.5A.511.511,0,0,1,429.193,131.16Zm.875,6.506h-.744v-5.037h.744Z" />
    <path
       id="path170"
       d="M432.079,137.666h-.745v-7.039l.745-.171Z" />
    <path
       id="path172"
       d="M437.276,137.133a2.344,2.344,0,0,1-1.629.614,2.6,2.6,0,1,1,1.618-4.626v-2.494l.744-.171v7.21h-.733Zm-1.559-.04a1.95,1.95,0,0,0,1.548-.7V133.9a1.991,1.991,0,0,0-1.548-.694,1.863,1.863,0,0,0-1.87,1.931A1.889,1.889,0,0,0,435.717,137.093Z" />
    <path
       id="path174"
       d="M442.228,135.464H441.1v-.583h1.287l.422-1.468h-1.206v-.584h1.367l.634-2.2h.683l-.633,2.2h1.991l.634-2.2h.683l-.633,2.2h1.126v.584H446.17l-.422,1.468h1.207v.583h-1.369l-.632,2.2h-.685l.634-2.2h-1.991l-.633,2.2h-.685Zm2.836-.583.422-1.468H443.5l-.423,1.468Z" />
    <path
       id="path176"
       d="M452.763,135.153h.845v.633h-.845v1.88h-.734v-1.88h-4V135.2l3.952-4.576h.784Zm-.734,0v-3.59l-3.1,3.59Z" />
    <path
       id="path178"
       d="M456.038,137.666H455.3V131.4l-1.186.522v-.673l1.448-.624h.473Z" />
  </g>
  <g
     id="g232">
    <rect
       id="rect182"
       height="61.953"
       width="96.349"
       y="243.767"
       x="39.352"
       class="cls-8" />
    <g
       id="g222">
      <path
         id="path184"
         d="M82.658,259.742h3.057a2.049,2.049,0,1,1,0,4.073H83.432v2.966h-.774Zm.774.694v2.705h2.223c.955,0,1.558-.523,1.558-1.357s-.6-1.348-1.558-1.348Z" />
      <path
         id="path186"
         d="M88.889,260.276a.5.5,0,0,1,.5-.5.5.5,0,0,1,.5.5.5.5,0,0,1-.5.5A.511.511,0,0,1,88.889,260.276Zm.875,6.5h-.745v-5.037h.745Z" />
      <path
         id="path188"
         d="M91.029,261.744h.735v.543a2.3,2.3,0,0,1,1.629-.624,2.6,2.6,0,1,1-1.62,4.616v2.564h-.744Zm.744,1.277v2.493a1.991,1.991,0,0,0,1.549.694,1.947,1.947,0,0,0,0-3.891A1.952,1.952,0,0,0,91.773,263.021Z" />
      <path
         id="path190"
         d="M99.332,266.872a2.567,2.567,0,0,1-2.594-2.614,2.52,2.52,0,0,1,2.483-2.595,2.472,2.472,0,0,1,2.383,2.595v.231H97.472a1.892,1.892,0,0,0,1.89,1.729,2.194,2.194,0,0,0,1.388-.462l.462.493A2.982,2.982,0,0,1,99.332,266.872Zm-1.84-2.976h3.368a1.687,1.687,0,0,0-3.368,0Z" />
      <path
         id="path192"
         d="M103.381,266.781h-.744v-7.039l.744-.171Z" />
      <path
         id="path194"
         d="M104.517,260.276a.5.5,0,0,1,.5-.5.5.5,0,0,1,.5.5.5.5,0,0,1-.5.5A.511.511,0,0,1,104.517,260.276Zm.874,6.5h-.744v-5.037h.744Z" />
      <path
         id="path196"
         d="M106.657,261.744h.744v.593a2,2,0,0,1,1.589-.694,1.856,1.856,0,0,1,1.941,1.951v3.187H110.2v-3.036a1.326,1.326,0,0,0-1.408-1.448,1.567,1.567,0,0,0-1.388.774v3.71h-.744Z" />
      <path
         id="path198"
         d="M114.538,266.872a2.567,2.567,0,0,1-2.594-2.614,2.52,2.52,0,0,1,2.483-2.595,2.472,2.472,0,0,1,2.383,2.595v.231h-4.132a1.893,1.893,0,0,0,1.89,1.729,2.194,2.194,0,0,0,1.388-.462l.462.493A2.982,2.982,0,0,1,114.538,266.872ZM112.7,263.9h3.368a1.687,1.687,0,0,0-3.368,0Z" />
      <path
         id="path200"
         d="M82.175,273.734l.805-2.122h.583l-.583,2.122Z" />
      <path
         id="path202"
         d="M87.755,278.952a3.63,3.63,0,1,1-.01-7.259,3.773,3.773,0,0,1,2.775,1.156l-.522.533a3.035,3.035,0,0,0-2.253-.976,2.917,2.917,0,0,0,0,5.832,2.589,2.589,0,0,0,2.645-2.392H87.866v-.685h3.308v.313A3.4,3.4,0,0,1,87.755,278.952Z" />
      <path
         id="path204"
         d="M93.482,271.612l-.8,2.122H92.1l.583-2.122Z" />
      <path
         id="path206"
         d="M85.514,283.862c1.357,0,2.222.7,2.222,1.811a1.636,1.636,0,0,1-1.076,1.559,1.753,1.753,0,0,1,1.368,1.689c0,1.206-.946,1.981-2.394,1.981H82.658v-7.04Zm-2.082.674v2.394h2.042c.915,0,1.5-.463,1.5-1.2s-.583-1.2-1.5-1.2Zm3.811,4.365c0-.805-.653-1.328-1.669-1.328H83.432v2.655h2.142C86.59,290.228,87.243,289.705,87.243,288.9Z" />
      <path
         id="path208"
         d="M89.734,288.9a1.327,1.327,0,0,0,1.408,1.448,1.556,1.556,0,0,0,1.387-.784v-3.7h.744V290.9h-.744v-.583A2,2,0,0,1,90.95,291,1.858,1.858,0,0,1,89,289.051v-3.188h.735Z" />
      <path
         id="path210"
         d="M94.407,284.4a.5.5,0,0,1,.5-.5.5.5,0,0,1,.5.5.5.5,0,0,1-.5.5A.511.511,0,0,1,94.407,284.4Zm.874,6.506h-.744v-5.039h.744Z" />
      <path
         id="path212"
         d="M97.291,290.9h-.744v-7.04l.744-.17Z" />
      <path
         id="path214"
         d="M102.489,290.368a2.336,2.336,0,0,1-1.629.614,2.6,2.6,0,1,1,1.619-4.625v-2.5l.744-.17v7.21h-.734Zm-1.558-.04a1.951,1.951,0,0,0,1.548-.7v-2.493a1.989,1.989,0,0,0-1.548-.694,1.862,1.862,0,0,0-1.871,1.93A1.888,1.888,0,0,0,100.931,290.328Z" />
      <path
         id="path216"
         d="M107.442,288.7h-1.126v-.583H107.6l.422-1.468h-1.207v-.583h1.368l.634-2.2h.683l-.633,2.2h1.991l.634-2.2h.683l-.633,2.2h1.126v.583h-1.287l-.423,1.468h1.207v.583H110.8l-.634,2.2h-.684l.634-2.2h-1.991l-.634,2.2h-.683Zm2.836-.583.422-1.468h-1.991l-.422,1.468Z" />
      <path
         id="path218"
         d="M115.171,290.9h-.734v-6.265l-1.187.522v-.672l1.448-.625h.473Z" />
      <path
         id="path220"
         d="M120.468,284.516h-4.444v-.654H121.3v.564l-3.66,6.476H116.8Z" />
    </g>
    <g
       id="g230">
      <path
         id="path224"
         d="M58.256,264.759a.662.662,0,0,1-.653.657h-5.06v24.405H74.091V259.7H58.256Z"
         class="cls-9" />
      <polygon
         id="polygon226"
         points="56.951 260.625 53.464 264.112 56.951 264.112 56.951 260.625"
         class="cls-9" />
      <path
         id="path228"
         d="M74.743,258.4H57.6a.825.825,0,0,0-.207-.005l-.061,0a.537.537,0,0,0-.117.09L51.5,264.2a.657.657,0,0,0-.092.123l-.006.065a.417.417,0,0,0,0,.132l.006,25.922a.663.663,0,0,0,.658.653H74.743a.663.663,0,0,0,.653-.659V259.022A.647.647,0,0,0,74.743,258.4Zm-17.792,2.227v3.487H53.464Zm17.14,29.2H52.543V265.416H57.6a.662.662,0,0,0,.653-.657V259.7H74.091Z"
         class="cls-4" />
    </g>
  </g>
  <g
     id="g282">
    <rect
       id="rect234"
       height="61.953"
       width="96.349"
       y="243.767"
       x="203.406"
       class="cls-8" />
    <g
       id="g272">
      <path
         id="path236"
         d="M247.475,259.742h3.056a2.049,2.049,0,1,1,0,4.073h-2.283v2.966h-.773Zm.773.694v2.705h2.223c.955,0,1.559-.523,1.559-1.357s-.6-1.348-1.559-1.348Z" />
      <path
         id="path238"
         d="M253.706,260.276a.5.5,0,0,1,.5-.5.5.5,0,0,1,.5.5.5.5,0,0,1-.5.5A.51.51,0,0,1,253.706,260.276Zm.874,6.5h-.744v-5.037h.744Z" />
      <path
         id="path240"
         d="M255.846,261.744h.734v.543a2.3,2.3,0,0,1,1.629-.624,2.6,2.6,0,1,1-1.619,4.616v2.564h-.744Zm.744,1.277v2.493a1.99,1.99,0,0,0,1.549.694,1.947,1.947,0,0,0,0-3.891A1.952,1.952,0,0,0,256.59,263.021Z" />
      <path
         id="path242"
         d="M264.148,266.872a2.567,2.567,0,0,1-2.594-2.614,2.521,2.521,0,0,1,2.484-2.595,2.472,2.472,0,0,1,2.383,2.595v.231h-4.133a1.893,1.893,0,0,0,1.891,1.729,2.191,2.191,0,0,0,1.387-.462l.463.493A2.983,2.983,0,0,1,264.148,266.872Zm-1.84-2.976h3.369a1.688,1.688,0,0,0-3.369,0Z" />
      <path
         id="path244"
         d="M268.2,266.781h-.744v-7.039l.744-.171Z" />
      <path
         id="path246"
         d="M269.333,260.276a.5.5,0,0,1,.5-.5.5.5,0,0,1,.5.5.5.5,0,0,1-.5.5A.511.511,0,0,1,269.333,260.276Zm.874,6.5h-.744v-5.037h.744Z" />
      <path
         id="path248"
         d="M271.474,261.744h.744v.593a1.992,1.992,0,0,1,1.589-.694,1.856,1.856,0,0,1,1.941,1.951v3.187h-.735v-3.036a1.326,1.326,0,0,0-1.408-1.448,1.564,1.564,0,0,0-1.387.774v3.71h-.744Z" />
      <path
         id="path250"
         d="M279.354,266.872a2.567,2.567,0,0,1-2.594-2.614,2.521,2.521,0,0,1,2.484-2.595,2.472,2.472,0,0,1,2.383,2.595v.231h-4.133a1.893,1.893,0,0,0,1.891,1.729,2.191,2.191,0,0,0,1.387-.462l.463.493A2.983,2.983,0,0,1,279.354,266.872Zm-1.84-2.976h3.369a1.688,1.688,0,0,0-3.369,0Z" />
      <path
         id="path252"
         d="M246.992,273.734l.8-2.122h.583l-.583,2.122Z" />
      <path
         id="path254"
         d="M249.464,271.8h.774v3.339l3.64-3.339h1.016l-3.821,3.449,3.9,3.59h-1.086l-3.651-3.379v3.379h-.774Z" />
      <path
         id="path256"
         d="M256.56,271.612l-.8,2.122h-.583l.583-2.122Z" />
      <path
         id="path258"
         d="M250.33,283.862c1.357,0,2.223.7,2.223,1.811a1.638,1.638,0,0,1-1.076,1.559,1.753,1.753,0,0,1,1.367,1.689c0,1.206-.945,1.981-2.393,1.981h-2.976v-7.04Zm-2.082.674v2.394h2.042c.915,0,1.5-.463,1.5-1.2s-.583-1.2-1.5-1.2Zm3.812,4.365c0-.805-.654-1.328-1.669-1.328h-2.143v2.655h2.143C251.406,290.228,252.06,289.705,252.06,288.9Z" />
      <path
         id="path260"
         d="M254.55,288.9a1.327,1.327,0,0,0,1.408,1.448,1.557,1.557,0,0,0,1.388-.784v-3.7h.744V290.9h-.744v-.583a2,2,0,0,1-1.579.683,1.858,1.858,0,0,1-1.951-1.951v-3.188h.734Z" />
      <path
         id="path262"
         d="M259.223,284.4a.5.5,0,0,1,.5-.5.5.5,0,0,1,.5.5.5.5,0,0,1-.5.5A.511.511,0,0,1,259.223,284.4Zm.875,6.506h-.745v-5.039h.745Z" />
      <path
         id="path264"
         d="M262.107,290.9h-.744v-7.04l.744-.17Z" />
      <path
         id="path266"
         d="M267.306,290.368a2.341,2.341,0,0,1-1.63.614,2.6,2.6,0,1,1,1.619-4.625v-2.5l.744-.17v7.21h-.733Zm-1.559-.04a1.951,1.951,0,0,0,1.548-.7v-2.493a1.989,1.989,0,0,0-1.548-.694,1.863,1.863,0,0,0-1.871,1.93A1.888,1.888,0,0,0,265.747,290.328Z" />
      <path
         id="path268"
         d="M272.258,288.7h-1.126v-.583h1.287l.423-1.468h-1.207v-.583H273l.634-2.2h.684l-.634,2.2h1.991l.634-2.2H277l-.634,2.2h1.126v.583H276.2l-.422,1.468h1.206v.583h-1.367l-.634,2.2H274.3l.633-2.2h-1.991l-.633,2.2h-.684Zm2.836-.583.423-1.468h-1.992l-.422,1.468Z" />
      <path
         id="path270"
         d="M278.6,283.862h4.132v.644h-3.509l-.1,2.3a4.158,4.158,0,0,1,1.458-.262A2.25,2.25,0,0,1,283.1,288.7a2.31,2.31,0,0,1-2.564,2.3,3.6,3.6,0,0,1-2.5-.955l.462-.493a2.9,2.9,0,0,0,2.051.814,1.644,1.644,0,0,0,1.81-1.638c0-.925-.774-1.569-1.91-1.569a4.224,4.224,0,0,0-1.579.322l-.432-.151Z" />
    </g>
    <g
       id="g280">
      <path
         id="path274"
         d="M223.519,264.759a.662.662,0,0,1-.653.657h-5.061v24.405h21.549V259.7H223.519Z"
         class="cls-9" />
      <polygon
         id="polygon276"
         points="222.214 260.625 218.727 264.112 222.214 264.112 222.214 260.625"
         class="cls-9" />
      <path
         id="path278"
         d="M240.006,258.4h-17.14a.825.825,0,0,0-.207-.005l-.062,0a.531.531,0,0,0-.116.09l-5.718,5.718a.758.758,0,0,0-.092.123l0,.065a.417.417,0,0,0,0,.132l.006,25.922a.662.662,0,0,0,.657.653h22.677a.663.663,0,0,0,.653-.659V259.022A.648.648,0,0,0,240.006,258.4Zm-17.792,2.227v3.487h-3.487Zm17.14,29.2H217.805V265.416h5.061a.662.662,0,0,0,.653-.657V259.7h15.835Z"
         class="cls-4" />
    </g>
  </g>
  <g
     id="g290">
    <path
       id="path284"
       d="M392.346,113.106a.663.663,0,0,1-.653.658h-5.06v24.405h21.548V108.051H392.346Z"
       class="cls-9" />
    <polygon
       id="polygon286"
       points="391.041 108.973 387.554 112.459 391.041 112.459 391.041 108.973"
       class="cls-9" />
    <path
       id="path288"
       d="M408.833,106.746h-17.14a.737.737,0,0,0-.207,0h-.062a.6.6,0,0,0-.116.091l-5.717,5.718a.626.626,0,0,0-.092.123l-.006.064a.424.424,0,0,0,0,.133l.006,25.922a.663.663,0,0,0,.658.653h22.676a.663.663,0,0,0,.653-.659V107.37A.648.648,0,0,0,408.833,106.746Zm-17.792,2.227v3.486h-3.487Zm17.14,29.2H386.633V113.764h5.06a.663.663,0,0,0,.653-.658v-5.055h15.835Z"
       class="cls-4" />
  </g>
  <g
     id="g318">
    <path
       id="path292"
       d="M218.018,69.785a2.642,2.642,0,0,1-2.675-1.95l1.106-.413a1.614,1.614,0,0,0,1.579,1.3,1.561,1.561,0,0,0,1.538-1.759V62.646h1.207V66.99A2.6,2.6,0,0,1,218.018,69.785Z" />
    <path
       id="path294"
       d="M224.51,69.785a2.56,2.56,0,0,1-2.564-2.614,2.481,2.481,0,0,1,2.454-2.6,2.418,2.418,0,0,1,2.383,2.594v.282h-3.721a1.539,1.539,0,0,0,1.509,1.377,1.638,1.638,0,0,0,1.2-.473l.743.694A2.911,2.911,0,0,1,224.51,69.785Zm-1.428-3.036h2.625a1.381,1.381,0,0,0-1.317-1.258A1.354,1.354,0,0,0,223.082,66.749Z" />
    <path
       id="path296"
       d="M227.936,64.647h1.137v.824a1.827,1.827,0,0,1,1.6-.9,1.7,1.7,0,0,1,1.74,1.8v3.319h-1.136v-3a1.085,1.085,0,0,0-1.107-1.206,1.29,1.29,0,0,0-1.095.6v3.6h-1.137Z" />
    <path
       id="path298"
       d="M233.786,62.5l1.136-.191v4.5l2.091-2.152h1.3l-2.3,2.333,2.443,2.7h-1.458l-2.071-2.323v2.323h-1.136Z" />
    <path
       id="path300"
       d="M239.081,62.927a.709.709,0,0,1,1.418,0,.709.709,0,0,1-1.418,0Zm1.278,6.758h-1.136V64.647h1.136Z" />
    <path
       id="path302"
       d="M241.755,64.647h1.137v.824a1.825,1.825,0,0,1,1.6-.9,1.7,1.7,0,0,1,1.74,1.8v3.319h-1.136v-3a1.085,1.085,0,0,0-1.107-1.206,1.29,1.29,0,0,0-1.095.6v3.6h-1.137Z" />
    <path
       id="path304"
       d="M247.684,68.337a2.9,2.9,0,0,0,1.619.573c.6,0,1.016-.271,1.016-.673,0-.312-.212-.483-.694-.573l-.9-.151c-.976-.181-1.458-.634-1.458-1.388,0-.945.774-1.558,1.951-1.558a3.548,3.548,0,0,1,1.981.6l-.533.744a2.754,2.754,0,0,0-1.519-.483c-.523,0-.864.222-.864.594,0,.321.181.462.713.553l.885.16c1.006.191,1.488.654,1.488,1.408a1.845,1.845,0,0,1-2.051,1.639,3.382,3.382,0,0,1-2.172-.683Z" />
    <path
       id="path306"
       d="M255.936,64.164v5.521H254.82V62.646h1.568l2.062,4.263,2.051-4.263h1.569v7.039h-1.136v-5.49l-2.494,4.987Z" />
    <path
       id="path308"
       d="M263.272,68.237c0-.905.734-1.479,1.92-1.479a3.116,3.116,0,0,1,1.358.312v-.553c0-.663-.382-1-1.157-1a3.5,3.5,0,0,0-1.468.392l-.4-.825a4.834,4.834,0,0,1,2.092-.512c1.307,0,2.061.663,2.061,1.83v3.288H266.55v-.513a2.1,2.1,0,0,1-1.5.593A1.588,1.588,0,0,1,263.272,68.237Zm2.091.734a1.8,1.8,0,0,0,1.187-.413v-.824a2.607,2.607,0,0,0-1.167-.241c-.643,0-1.045.281-1.045.723C264.338,68.679,264.74,68.971,265.363,68.971Z" />
    <path
       id="path310"
       d="M269.131,68.337a2.9,2.9,0,0,0,1.619.573c.6,0,1.016-.271,1.016-.673,0-.312-.212-.483-.694-.573l-.895-.151c-.976-.181-1.458-.634-1.458-1.388,0-.945.774-1.558,1.95-1.558a3.546,3.546,0,0,1,1.981.6l-.532.744a2.754,2.754,0,0,0-1.519-.483c-.523,0-.865.222-.865.594,0,.321.181.462.714.553l.885.16c1.006.191,1.488.654,1.488,1.408a1.846,1.846,0,0,1-2.051,1.639A3.382,3.382,0,0,1,268.6,69.1Z" />
    <path
       id="path312"
       d="M274.387,65.552h-1.015v-.905h1.015V63.259l1.136-.241v1.629h1.409v.905h-1.409v2.554c0,.493.192.684.7.684a2.1,2.1,0,0,0,.684-.121v.955a3.547,3.547,0,0,1-.975.141c-1.016,0-1.549-.483-1.549-1.407Z" />
    <path
       id="path314"
       d="M280.187,69.785a2.56,2.56,0,0,1-2.564-2.614,2.481,2.481,0,0,1,2.454-2.6,2.418,2.418,0,0,1,2.383,2.594v.282h-3.72a1.538,1.538,0,0,0,1.508,1.377,1.637,1.637,0,0,0,1.2-.473l.743.694A2.911,2.911,0,0,1,280.187,69.785Zm-1.427-3.036h2.624a1.38,1.38,0,0,0-1.317-1.258A1.353,1.353,0,0,0,278.76,66.749Z" />
    <path
       id="path316"
       d="M283.614,64.647h1.136v1.1a1.494,1.494,0,0,1,1.388-1.187,1.372,1.372,0,0,1,.492.1v1a1.591,1.591,0,0,0-.623-.121,1.382,1.382,0,0,0-1.257.834v3.319h-1.136Z" />
  </g>
  <g
     id="g328">
    <path
       id="path320"
       d="M407.854,270.609h.774v7.039h-.774Z" />
    <path
       id="path322"
       d="M413.966,277.115a2.342,2.342,0,0,1-1.629.613,2.6,2.6,0,1,1,1.619-4.625v-2.494l.744-.171v7.21h-.734Zm-1.558-.041a1.955,1.955,0,0,0,1.548-.7v-2.494a1.992,1.992,0,0,0-1.548-.694,1.862,1.862,0,0,0-1.87,1.93A1.888,1.888,0,0,0,412.408,277.074Z" />
    <path
       id="path324"
       d="M416.708,277.648h-.744v-7.039l.744-.171Z" />
    <path
       id="path326"
       d="M420.336,277.738a2.566,2.566,0,0,1-2.593-2.614,2.52,2.52,0,0,1,2.483-2.6,2.473,2.473,0,0,1,2.384,2.6v.231h-4.133a1.893,1.893,0,0,0,1.89,1.73,2.189,2.189,0,0,0,1.387-.463l.463.493A2.983,2.983,0,0,1,420.336,277.738Zm-1.839-2.976h3.369a1.688,1.688,0,0,0-3.369,0Z" />
  </g>
  <g
     id="g360">
    <path
       id="path330"
       d="M50.272,234.517a2.641,2.641,0,0,1-2.674-1.95l1.106-.413a1.613,1.613,0,0,0,1.579,1.3,1.561,1.561,0,0,0,1.538-1.759v-4.314h1.207v4.344A2.6,2.6,0,0,1,50.272,234.517Z" />
    <path
       id="path332"
       d="M56.765,234.517A2.56,2.56,0,0,1,54.2,231.9a2.48,2.48,0,0,1,2.453-2.6,2.418,2.418,0,0,1,2.384,2.594v.281H55.317a1.538,1.538,0,0,0,1.508,1.378,1.637,1.637,0,0,0,1.2-.473l.744.694A2.914,2.914,0,0,1,56.765,234.517Zm-1.428-3.036h2.624a1.379,1.379,0,0,0-1.317-1.258A1.353,1.353,0,0,0,55.337,231.481Z" />
    <path
       id="path334"
       d="M60.191,229.379h1.136v.824a1.828,1.828,0,0,1,1.6-.9,1.694,1.694,0,0,1,1.739,1.8v3.319H63.529v-3a1.084,1.084,0,0,0-1.106-1.206,1.29,1.29,0,0,0-1.1.6v3.6H60.191Z" />
    <path
       id="path336"
       d="M66.04,227.227l1.136-.191v4.5l2.092-2.152h1.3l-2.3,2.333,2.444,2.705H69.248l-2.072-2.323v2.323H66.04Z" />
    <path
       id="path338"
       d="M71.336,227.659a.709.709,0,0,1,1.418,0,.709.709,0,0,1-1.418,0Zm1.277,6.758H71.477v-5.038h1.136Z" />
    <path
       id="path340"
       d="M74.009,229.379h1.136v.824a1.828,1.828,0,0,1,1.6-.9,1.7,1.7,0,0,1,1.74,1.8v3.319H77.348v-3a1.085,1.085,0,0,0-1.107-1.206,1.29,1.29,0,0,0-1.1.6v3.6H74.009Z" />
    <path
       id="path342"
       d="M79.938,233.069a2.9,2.9,0,0,0,1.62.573c.6,0,1.015-.271,1.015-.673,0-.312-.211-.483-.694-.573l-.9-.151c-.975-.181-1.458-.634-1.458-1.388,0-.945.775-1.558,1.951-1.558a3.54,3.54,0,0,1,1.981.6l-.533.744a2.754,2.754,0,0,0-1.518-.483c-.523,0-.865.221-.865.594,0,.321.181.462.714.553l.885.16c1,.191,1.488.654,1.488,1.408a1.846,1.846,0,0,1-2.051,1.639,3.38,3.38,0,0,1-2.172-.683Z" />
    <path
       id="path344"
       d="M89.055,227.378h1.4l2.725,7.039h-1.3l-.714-1.971h-2.9l-.724,1.971H86.29Zm1.76,4.123-1.086-3-1.106,3Z" />
    <path
       id="path346"
       d="M93.476,231.893a2.431,2.431,0,0,1,2.353-2.554,1.894,1.894,0,0,1,1.478.684v-.644h1.127v5.209c0,1.3-.845,2.011-2.374,2.011a4.371,4.371,0,0,1-2.021-.483l.4-.845a3.426,3.426,0,0,0,1.569.433c.844,0,1.287-.383,1.287-1.116v-.855a1.956,1.956,0,0,1-1.538.714A2.414,2.414,0,0,1,93.476,231.893ZM96.1,233.5a1.5,1.5,0,0,0,1.2-.554v-2.111a1.563,1.563,0,0,0-1.2-.543,1.5,1.5,0,0,0-1.5,1.6A1.524,1.524,0,0,0,96.1,233.5Z" />
    <path
       id="path348"
       d="M102.161,234.517A2.56,2.56,0,0,1,99.6,231.9a2.48,2.48,0,0,1,2.453-2.6,2.418,2.418,0,0,1,2.383,2.594v.281h-3.72a1.538,1.538,0,0,0,1.508,1.378,1.637,1.637,0,0,0,1.2-.473l.744.694A2.914,2.914,0,0,1,102.161,234.517Zm-1.428-3.036h2.624a1.379,1.379,0,0,0-1.317-1.258A1.353,1.353,0,0,0,100.733,231.481Z" />
    <path
       id="path350"
       d="M105.586,229.379h1.137v.824a1.825,1.825,0,0,1,1.6-.9,1.7,1.7,0,0,1,1.74,1.8v3.319h-1.136v-3a1.085,1.085,0,0,0-1.107-1.206,1.288,1.288,0,0,0-1.095.6v3.6h-1.137Z" />
    <path
       id="path352"
       d="M111.908,230.284h-1.015v-.905h1.015v-1.388l1.136-.241v1.629h1.409v.905h-1.409v2.554c0,.493.192.684.7.684a2.1,2.1,0,0,0,.684-.121v.955a3.547,3.547,0,0,1-.975.141c-1.016,0-1.549-.483-1.549-1.407Z" />
    <path
       id="path354"
       d="M117.405,229.529l.985-2.654h.835l-.674,2.654Z" />
    <path
       id="path356"
       d="M121.5,227.378h1.4l2.725,7.039h-1.3l-.714-1.971h-2.9l-.724,1.971h-1.257Zm1.759,4.123-1.086-3-1.106,3Z" />
    <path
       id="path358"
       d="M127.537,226.875l-.986,2.654h-.834l.673-2.654Z" />
  </g>
  <g
     id="g388">
    <g
       id="g378">
      <line
         id="line362"
         y2="220.083"
         x2="110.58"
         y1="220.083"
         x1="110.58"
         class="cls-10" />
      <line
         id="line364"
         y2="220.083"
         x2="67.034"
         y1="220.083"
         x1="105.457"
         class="cls-11" />
      <line
         id="line366"
         y2="220.083"
         x2="64.473"
         y1="220.083"
         x1="64.473"
         class="cls-10" />
      <line
         id="line368"
         y2="204.578"
         x2="64.473"
         y1="215.653"
         x1="64.473"
         class="cls-12" />
      <line
         id="line370"
         y2="202.363"
         x2="64.473"
         y1="202.363"
         x1="64.473"
         class="cls-10" />
      <line
         id="line372"
         y2="202.363"
         x2="108.019"
         y1="202.363"
         x1="69.596"
         class="cls-11" />
      <line
         id="line374"
         y2="202.363"
         x2="110.58"
         y1="202.363"
         x1="110.58"
         class="cls-10" />
      <line
         id="line376"
         y2="217.868"
         x2="110.58"
         y1="206.793"
         x1="110.58"
         class="cls-12" />
    </g>
    <g
       id="g386">
      <rect
         id="rect380"
         height="9.462"
         width="37.849"
         y="206.477"
         x="68.555"
         class="cls-13" />
      <line
         id="line382"
         y2="210.535"
         x2="102.359"
         y1="210.535"
         x1="102.359"
         class="cls-10" />
      <line
         id="line384"
         y2="211.884"
         x2="78.868"
         y1="211.884"
         x1="73.19"
         class="cls-14" />
    </g>
  </g>
  <g
     id="g420">
    <path
       id="path390"
       d="M213.673,234.517a2.643,2.643,0,0,1-2.675-1.95l1.106-.413a1.614,1.614,0,0,0,1.58,1.3,1.561,1.561,0,0,0,1.538-1.759v-4.314h1.207v4.344A2.6,2.6,0,0,1,213.673,234.517Z" />
    <path
       id="path392"
       d="M220.165,234.517A2.559,2.559,0,0,1,217.6,231.9a2.48,2.48,0,0,1,2.453-2.6,2.418,2.418,0,0,1,2.383,2.594v.281h-3.72a1.538,1.538,0,0,0,1.508,1.378,1.637,1.637,0,0,0,1.2-.473l.743.694A2.911,2.911,0,0,1,220.165,234.517Zm-1.427-3.036h2.624a1.38,1.38,0,0,0-1.317-1.258A1.353,1.353,0,0,0,218.738,231.481Z" />
    <path
       id="path394"
       d="M223.592,229.379h1.136v.824a1.828,1.828,0,0,1,1.6-.9,1.7,1.7,0,0,1,1.739,1.8v3.319H226.93v-3a1.084,1.084,0,0,0-1.106-1.206,1.289,1.289,0,0,0-1.1.6v3.6h-1.136Z" />
    <path
       id="path396"
       d="M229.441,227.227l1.136-.191v4.5l2.091-2.152h1.3l-2.3,2.333,2.443,2.705h-1.458l-2.071-2.323v2.323h-1.136Z" />
    <path
       id="path398"
       d="M234.737,227.659a.709.709,0,0,1,1.418,0,.709.709,0,0,1-1.418,0Zm1.277,6.758h-1.136v-5.038h1.136Z" />
    <path
       id="path400"
       d="M237.41,229.379h1.136v.824a1.828,1.828,0,0,1,1.6-.9,1.7,1.7,0,0,1,1.74,1.8v3.319h-1.137v-3a1.084,1.084,0,0,0-1.106-1.206,1.29,1.29,0,0,0-1.1.6v3.6H237.41Z" />
    <path
       id="path402"
       d="M243.339,233.069a2.9,2.9,0,0,0,1.619.573c.6,0,1.016-.271,1.016-.673,0-.312-.211-.483-.694-.573l-.9-.151c-.975-.181-1.458-.634-1.458-1.388,0-.945.775-1.558,1.951-1.558a3.54,3.54,0,0,1,1.981.6l-.533.744a2.754,2.754,0,0,0-1.518-.483c-.523,0-.865.221-.865.594,0,.321.181.462.714.553l.884.16c1.006.191,1.489.654,1.489,1.408a1.846,1.846,0,0,1-2.052,1.639,3.377,3.377,0,0,1-2.171-.683Z" />
    <path
       id="path404"
       d="M252.456,227.378h1.4l2.726,7.039h-1.3l-.714-1.971h-2.9l-.724,1.971h-1.257Zm1.76,4.123-1.086-3-1.107,3Z" />
    <path
       id="path406"
       d="M256.877,231.893a2.431,2.431,0,0,1,2.353-2.554,1.894,1.894,0,0,1,1.478.684v-.644h1.126v5.209c0,1.3-.844,2.011-2.373,2.011a4.371,4.371,0,0,1-2.021-.483l.4-.845a3.426,3.426,0,0,0,1.569.433c.844,0,1.287-.383,1.287-1.116v-.855a1.956,1.956,0,0,1-1.538.714A2.414,2.414,0,0,1,256.877,231.893ZM259.5,233.5a1.506,1.506,0,0,0,1.2-.554v-2.111a1.563,1.563,0,0,0-1.2-.543,1.5,1.5,0,0,0-1.5,1.6A1.523,1.523,0,0,0,259.5,233.5Z" />
    <path
       id="path408"
       d="M265.561,234.517A2.559,2.559,0,0,1,263,231.9a2.48,2.48,0,0,1,2.453-2.6,2.418,2.418,0,0,1,2.383,2.594v.281h-3.72a1.538,1.538,0,0,0,1.508,1.378,1.637,1.637,0,0,0,1.2-.473l.743.694A2.911,2.911,0,0,1,265.561,234.517Zm-1.427-3.036h2.624a1.38,1.38,0,0,0-1.317-1.258A1.353,1.353,0,0,0,264.134,231.481Z" />
    <path
       id="path410"
       d="M268.987,229.379h1.136v.824a1.828,1.828,0,0,1,1.6-.9,1.7,1.7,0,0,1,1.74,1.8v3.319h-1.136v-3a1.085,1.085,0,0,0-1.107-1.206,1.29,1.29,0,0,0-1.1.6v3.6h-1.136Z" />
    <path
       id="path412"
       d="M275.309,230.284h-1.016v-.905h1.016v-1.388l1.136-.241v1.629h1.408v.905h-1.408v2.554c0,.493.192.684.7.684a2.1,2.1,0,0,0,.684-.121v.955a3.553,3.553,0,0,1-.975.141c-1.016,0-1.549-.483-1.549-1.407Z" />
    <path
       id="path414"
       d="M280.806,229.529l.985-2.654h.834l-.673,2.654Z" />
    <path
       id="path416"
       d="M286.838,227.378c1.327,0,2.222.744,2.222,1.85a1.688,1.688,0,0,1-1.126,1.559,1.76,1.76,0,0,1,1.367,1.669,2.053,2.053,0,0,1-2.323,1.961H283.71v-7.039Zm-1.921.985v1.971h1.8c.694,0,1.136-.382,1.136-.985s-.442-.986-1.136-.986Zm3.167,3.982a1.1,1.1,0,0,0-1.246-1.076h-1.921v2.162h1.921A1.1,1.1,0,0,0,288.084,232.345Z" />
    <path
       id="path418"
       d="M292.244,226.875l-.986,2.654h-.834l.673-2.654Z" />
  </g>
  <g
     id="g448">
    <g
       id="g438">
      <line
         id="line422"
         y2="220.083"
         x2="274.634"
         y1="220.083"
         x1="274.634"
         class="cls-10" />
      <line
         id="line424"
         y2="220.083"
         x2="231.088"
         y1="220.083"
         x1="269.511"
         class="cls-11" />
      <line
         id="line426"
         y2="220.083"
         x2="228.526"
         y1="220.083"
         x1="228.526"
         class="cls-10" />
      <line
         id="line428"
         y2="204.578"
         x2="228.526"
         y1="215.653"
         x1="228.526"
         class="cls-12" />
      <line
         id="line430"
         y2="202.363"
         x2="228.526"
         y1="202.363"
         x1="228.526"
         class="cls-10" />
      <line
         id="line432"
         y2="202.363"
         x2="272.072"
         y1="202.363"
         x1="233.649"
         class="cls-11" />
      <line
         id="line434"
         y2="202.363"
         x2="274.634"
         y1="202.363"
         x1="274.634"
         class="cls-10" />
      <line
         id="line436"
         y2="217.868"
         x2="274.634"
         y1="206.793"
         x1="274.634"
         class="cls-12" />
    </g>
    <g
       id="g446">
      <rect
         id="rect440"
         height="9.462"
         width="37.849"
         y="206.477"
         x="232.609"
         class="cls-13" />
      <line
         id="line442"
         y2="210.535"
         x2="266.412"
         y1="210.535"
         x1="266.412"
         class="cls-10" />
      <line
         id="line444"
         y2="211.884"
         x2="242.921"
         y1="211.884"
         x1="237.244"
         class="cls-14" />
    </g>
  </g>
  <g
     id="g480">
    <path
       id="path450"
       d="M377.007,234.517a2.642,2.642,0,0,1-2.675-1.95l1.106-.413a1.613,1.613,0,0,0,1.579,1.3,1.561,1.561,0,0,0,1.538-1.759v-4.314h1.207v4.344A2.6,2.6,0,0,1,377.007,234.517Z" />
    <path
       id="path452"
       d="M383.5,234.517a2.56,2.56,0,0,1-2.564-2.614,2.48,2.48,0,0,1,2.453-2.6,2.418,2.418,0,0,1,2.384,2.594v.281h-3.721a1.539,1.539,0,0,0,1.508,1.378,1.637,1.637,0,0,0,1.2-.473l.744.694A2.911,2.911,0,0,1,383.5,234.517Zm-1.427-3.036H384.7a1.381,1.381,0,0,0-1.318-1.258A1.353,1.353,0,0,0,382.072,231.481Z" />
    <path
       id="path454"
       d="M386.925,229.379h1.136v.824a1.83,1.83,0,0,1,1.6-.9,1.7,1.7,0,0,1,1.739,1.8v3.319h-1.137v-3a1.084,1.084,0,0,0-1.1-1.206,1.29,1.29,0,0,0-1.1.6v3.6h-1.136Z" />
    <path
       id="path456"
       d="M392.774,227.227l1.136-.191v4.5L396,229.379h1.3l-2.3,2.333,2.444,2.705h-1.459l-2.071-2.323v2.323h-1.136Z" />
    <path
       id="path458"
       d="M398.071,227.659a.709.709,0,0,1,1.417,0,.709.709,0,0,1-1.417,0Zm1.276,6.758h-1.136v-5.038h1.136Z" />
    <path
       id="path460"
       d="M400.744,229.379h1.135v.824a1.83,1.83,0,0,1,1.6-.9,1.7,1.7,0,0,1,1.739,1.8v3.319h-1.137v-3a1.084,1.084,0,0,0-1.105-1.206,1.291,1.291,0,0,0-1.1.6v3.6h-1.135Z" />
    <path
       id="path462"
       d="M406.673,233.069a2.9,2.9,0,0,0,1.619.573c.6,0,1.016-.271,1.016-.673,0-.312-.211-.483-.694-.573l-.895-.151c-.975-.181-1.458-.634-1.458-1.388,0-.945.775-1.558,1.951-1.558a3.542,3.542,0,0,1,1.981.6l-.533.744a2.751,2.751,0,0,0-1.518-.483c-.523,0-.865.221-.865.594,0,.321.18.462.714.553l.884.16c1.006.191,1.489.654,1.489,1.408a1.846,1.846,0,0,1-2.051,1.639,3.385,3.385,0,0,1-2.173-.683Z" />
    <path
       id="path464"
       d="M415.789,227.378h1.4l2.725,7.039h-1.3l-.714-1.971h-2.9l-.723,1.971h-1.257Zm1.76,4.123-1.086-3-1.105,3Z" />
    <path
       id="path466"
       d="M420.21,231.893a2.432,2.432,0,0,1,2.353-2.554,1.892,1.892,0,0,1,1.478.684v-.644h1.126v5.209c0,1.3-.844,2.011-2.373,2.011a4.37,4.37,0,0,1-2.02-.483l.4-.845a3.433,3.433,0,0,0,1.57.433c.844,0,1.287-.383,1.287-1.116v-.855a1.958,1.958,0,0,1-1.539.714A2.415,2.415,0,0,1,420.21,231.893Zm2.624,1.609a1.507,1.507,0,0,0,1.2-.554v-2.111a1.565,1.565,0,0,0-1.2-.543,1.5,1.5,0,0,0-1.5,1.6A1.524,1.524,0,0,0,422.834,233.5Z" />
    <path
       id="path468"
       d="M428.9,234.517a2.56,2.56,0,0,1-2.564-2.614,2.48,2.48,0,0,1,2.453-2.6,2.418,2.418,0,0,1,2.383,2.594v.281h-3.72a1.538,1.538,0,0,0,1.508,1.378,1.638,1.638,0,0,0,1.2-.473l.744.694A2.912,2.912,0,0,1,428.9,234.517Zm-1.429-3.036h2.625a1.38,1.38,0,0,0-1.317-1.258A1.354,1.354,0,0,0,427.466,231.481Z" />
    <path
       id="path470"
       d="M432.321,229.379h1.135v.824a1.83,1.83,0,0,1,1.6-.9,1.7,1.7,0,0,1,1.739,1.8v3.319h-1.136v-3a1.084,1.084,0,0,0-1.106-1.206,1.291,1.291,0,0,0-1.1.6v3.6h-1.135Z" />
    <path
       id="path472"
       d="M438.642,230.284h-1.016v-.905h1.016v-1.388l1.137-.241v1.629h1.407v.905h-1.407v2.554c0,.493.19.684.7.684a2.1,2.1,0,0,0,.683-.121v.955a3.553,3.553,0,0,1-.975.141c-1.016,0-1.549-.483-1.549-1.407Z" />
    <path
       id="path474"
       d="M444.139,229.529l.985-2.654h.835l-.673,2.654Z" />
    <path
       id="path476"
       d="M452.122,232.516l.794.764a3.612,3.612,0,1,1,.031-4.766l-.815.8a2.476,2.476,0,1,0-1.89,4.112A2.385,2.385,0,0,0,452.122,232.516Z" />
    <path
       id="path478"
       d="M455.838,226.875l-.986,2.654h-.834l.674-2.654Z" />
  </g>
  <g
     id="g508">
    <g
       id="g498">
      <line
         id="line482"
         y2="220.083"
         x2="438.098"
         y1="220.083"
         x1="438.098"
         class="cls-10" />
      <line
         id="line484"
         y2="220.083"
         x2="394.552"
         y1="220.083"
         x1="432.975"
         class="cls-11" />
      <line
         id="line486"
         y2="220.083"
         x2="391.99"
         y1="220.083"
         x1="391.99"
         class="cls-10" />
      <line
         id="line488"
         y2="204.578"
         x2="391.99"
         y1="215.653"
         x1="391.99"
         class="cls-12" />
      <line
         id="line490"
         y2="202.363"
         x2="391.99"
         y1="202.363"
         x1="391.99"
         class="cls-10" />
      <line
         id="line492"
         y2="202.363"
         x2="435.536"
         y1="202.363"
         x1="397.114"
         class="cls-11" />
      <line
         id="line494"
         y2="202.363"
         x2="438.098"
         y1="202.363"
         x1="438.098"
         class="cls-10" />
      <line
         id="line496"
         y2="217.868"
         x2="438.098"
         y1="206.793"
         x1="438.098"
         class="cls-12" />
    </g>
    <g
       id="g506">
      <rect
         id="rect500"
         height="9.462"
         width="37.849"
         y="206.477"
         x="396.073"
         class="cls-13" />
      <line
         id="line502"
         y2="210.535"
         x2="429.876"
         y1="210.535"
         x1="429.876"
         class="cls-10" />
      <line
         id="line504"
         y2="211.884"
         x2="406.385"
         y1="211.884"
         x1="400.708"
         class="cls-14" />
    </g>
  </g>
  <g
     id="g514">
    <path
       id="path510"
       d="M67.066,377.905v11.3c0,6.242,9.16,11.3,20.46,11.3s20.461-5.061,20.461-11.3v-11.3"
       class="cls-13" />
    <ellipse
       id="ellipse512"
       ry="11.304"
       rx="20.461"
       cy="377.905"
       cx="87.526"
       class="cls-13" />
  </g>
  <g
     id="g534">
    <path
       id="path516"
       d="M228.963,415.953l-1.518-7.039h.784l1.2,5.813,1.739-5.813h.755l1.74,5.792,1.206-5.792h.754l-1.518,7.039h-.784l-1.78-5.963-1.79,5.963Z" />
    <path
       id="path518"
       d="M238.472,410.815a2.62,2.62,0,1,1-2.575,2.614A2.567,2.567,0,0,1,238.472,410.815Zm1.83,2.614a1.84,1.84,0,1,0-1.83,1.961A1.872,1.872,0,0,0,240.3,413.429Z" />
    <path
       id="path520"
       d="M242.068,410.915h.744v.714a1.573,1.573,0,0,1,1.408-.824,1.379,1.379,0,0,1,.472.07v.684a1.606,1.606,0,0,0-.522-.09,1.425,1.425,0,0,0-1.358,1.035v3.449h-.744Z" />
    <path
       id="path522"
       d="M245.545,408.914l.744-.171v4.445l2.635-2.273h.905l-2.765,2.394,2.9,2.644h-1.016l-2.655-2.413v2.413h-.744Z" />
    <path
       id="path524"
       d="M250.37,414.777a2.41,2.41,0,0,0,1.639.673c.8,0,1.367-.372,1.367-.9,0-.432-.292-.673-.935-.764l-.875-.121c-1.006-.15-1.488-.592-1.488-1.357,0-.845.784-1.468,1.89-1.468a3.22,3.22,0,0,1,1.981.663l-.392.5a2.824,2.824,0,0,0-1.629-.562c-.694,0-1.166.341-1.166.834,0,.432.271.643.935.744l.875.121c1,.141,1.508.593,1.508,1.367,0,.875-.885,1.539-2.041,1.539a3.068,3.068,0,0,1-2.122-.784Z" />
    <path
       id="path526"
       d="M254.912,410.915h.734v.543a2.307,2.307,0,0,1,1.629-.623,2.6,2.6,0,1,1-1.619,4.615v2.565h-.744Zm.744,1.278v2.494a2,2,0,0,0,1.549.693,1.948,1.948,0,0,0,0-3.892A1.952,1.952,0,0,0,255.656,412.193Z" />
    <path
       id="path528"
       d="M260.62,414.526c0-.946.774-1.539,2.011-1.539a3.265,3.265,0,0,1,1.478.342v-.664c0-.8-.462-1.217-1.337-1.217a3.341,3.341,0,0,0-1.579.443l-.281-.573a4.278,4.278,0,0,1,1.931-.5c1.277,0,1.99.624,1.99,1.75v3.388h-.724v-.493a2.394,2.394,0,0,1-1.629.584C261.374,416.044,260.62,415.431,260.62,414.526Zm1.991.934a2.006,2.006,0,0,0,1.5-.583v-.945a2.463,2.463,0,0,0-1.458-.4c-.8,0-1.317.383-1.317.976C261.334,415.069,261.857,415.46,262.611,415.46Z" />
    <path
       id="path530"
       d="M269.9,414.737l.462.5a2.812,2.812,0,0,1-1.95.805,2.615,2.615,0,0,1,0-5.229,2.865,2.865,0,0,1,1.971.8l-.473.543a2.067,2.067,0,0,0-1.488-.655,1.938,1.938,0,0,0,.01,3.872A2.054,2.054,0,0,0,269.9,414.737Z" />
    <path
       id="path532"
       d="M273.4,416.044a2.568,2.568,0,0,1-2.594-2.615,2.521,2.521,0,0,1,2.484-2.594,2.473,2.473,0,0,1,2.383,2.594v.231h-4.133a1.893,1.893,0,0,0,1.891,1.73,2.2,2.2,0,0,0,1.387-.462l.463.492A2.978,2.978,0,0,1,273.4,416.044Zm-1.84-2.976h3.369a1.688,1.688,0,0,0-3.369,0Z" />
  </g>
  <g
     id="g540">
    <path
       id="path536"
       d="M231.119,377.905v11.3c0,6.242,9.161,11.3,20.461,11.3s20.461-5.061,20.461-11.3v-11.3"
       class="cls-13" />
    <ellipse
       id="ellipse538"
       ry="11.304"
       rx="20.461"
       cy="377.905"
       cx="251.58"
       class="cls-13" />
  </g>
  <g
     id="g594">
    <path
       id="path542"
       d="M524.312,57.358a2.6,2.6,0,0,1-2.554-1.8l.7-.292a1.9,1.9,0,0,0,1.861,1.378,1.855,1.855,0,0,0,1.89-2.061V50.208h.774v4.384A2.538,2.538,0,0,1,524.312,57.358Z" />
    <path
       id="path544"
       d="M530.614,57.338a2.568,2.568,0,0,1-2.594-2.615,2.521,2.521,0,0,1,2.483-2.594,2.472,2.472,0,0,1,2.384,2.594v.232h-4.133a1.893,1.893,0,0,0,1.89,1.729,2.194,2.194,0,0,0,1.388-.463l.463.494A2.993,2.993,0,0,1,530.614,57.338Zm-1.84-2.976h3.369a1.688,1.688,0,0,0-3.369,0Z" />
    <path
       id="path546"
       d="M533.919,52.21h.745V52.8a1.989,1.989,0,0,1,1.588-.694,1.856,1.856,0,0,1,1.941,1.951v3.187h-.735V54.211a1.327,1.327,0,0,0-1.407-1.449,1.565,1.565,0,0,0-1.387.775v3.71h-.745Z" />
    <path
       id="path548"
       d="M539.437,50.208l.744-.171v4.445l2.634-2.272h.9L540.956,54.6l2.895,2.644h-1.016l-2.654-2.413v2.413h-.744Z" />
    <path
       id="path550"
       d="M544.271,50.741a.5.5,0,0,1,.5-.5.5.5,0,0,1,.5.5.5.5,0,0,1-.5.5A.511.511,0,0,1,544.271,50.741Zm.875,6.506H544.4V52.21h.744Z" />
    <path
       id="path552"
       d="M546.412,52.21h.744V52.8a1.989,1.989,0,0,1,1.589-.694,1.856,1.856,0,0,1,1.94,1.951v3.187h-.734V54.211a1.327,1.327,0,0,0-1.408-1.449,1.565,1.565,0,0,0-1.387.775v3.71h-.744Z" />
    <path
       id="path554"
       d="M551.869,56.071a2.41,2.41,0,0,0,1.638.673c.805,0,1.368-.372,1.368-.9,0-.433-.292-.674-.935-.765l-.875-.12c-1.005-.151-1.488-.593-1.488-1.358,0-.844.784-1.468,1.89-1.468a3.22,3.22,0,0,1,1.982.664l-.393.5a2.82,2.82,0,0,0-1.629-.564c-.694,0-1.167.342-1.167.835,0,.432.273.644.936.744l.875.121c1.006.14,1.508.593,1.508,1.367,0,.875-.885,1.539-2.041,1.539a3.066,3.066,0,0,1-2.122-.785Z" />
    <path
       id="path556"
       d="M558.511,56.071a2.414,2.414,0,0,0,1.639.673c.805,0,1.368-.372,1.368-.9,0-.433-.292-.674-.936-.765l-.875-.12c-1-.151-1.488-.593-1.488-1.358,0-.844.784-1.468,1.891-1.468a3.219,3.219,0,0,1,1.981.664l-.392.5a2.822,2.822,0,0,0-1.629-.564c-.7,0-1.167.342-1.167.835,0,.432.272.644.935.744l.875.121c1.006.14,1.508.593,1.508,1.367,0,.875-.885,1.539-2.041,1.539a3.062,3.062,0,0,1-2.121-.785Z" />
    <path
       id="path558"
       d="M565.467,57.338a2.568,2.568,0,0,1-2.594-2.615,2.521,2.521,0,0,1,2.484-2.594,2.472,2.472,0,0,1,2.384,2.594v.232h-4.133a1.892,1.892,0,0,0,1.89,1.729,2.191,2.191,0,0,0,1.387-.463l.463.494A2.989,2.989,0,0,1,565.467,57.338Zm-1.84-2.976H567a1.688,1.688,0,0,0-3.37,0Z" />
    <path
       id="path560"
       d="M569.2,52.843h-1.086V52.21H569.2V50.932l.734-.191V52.21h1.519v.633h-1.519V55.93c0,.543.221.754.775.754a1.785,1.785,0,0,0,.733-.131v.654a2.839,2.839,0,0,1-.885.131c-.875,0-1.357-.423-1.357-1.217Z" />
    <path
       id="path562"
       d="M572.963,52.843h-1.086V52.21h1.086V50.932l.735-.191V52.21h1.518v.633H573.7V55.93c0,.543.22.754.774.754a1.789,1.789,0,0,0,.734-.131v.654a2.839,2.839,0,0,1-.885.131c-.875,0-1.358-.423-1.358-1.217Z" />
    <path
       id="path564"
       d="M575.878,50.741a.505.505,0,0,1,.5-.5.5.5,0,0,1,.5.5.5.5,0,0,1-.5.5A.511.511,0,0,1,575.878,50.741Zm.875,6.506h-.744V52.21h.744Z" />
    <path
       id="path566"
       d="M578.019,52.21h.744V52.8a1.992,1.992,0,0,1,1.589-.694,1.855,1.855,0,0,1,1.94,1.951v3.187h-.734V54.211a1.327,1.327,0,0,0-1.407-1.449,1.566,1.566,0,0,0-1.388.775v3.71h-.744Z" />
    <path
       id="path568"
       d="M583.3,54.7a2.529,2.529,0,0,1,2.534-2.584,2.491,2.491,0,0,1,1.589.593v-.5h.734v5.158c0,1.287-.775,2-2.172,2a3.948,3.948,0,0,1-1.971-.523l.321-.583a3.327,3.327,0,0,0,1.619.462c.955,0,1.458-.462,1.458-1.347V56.7a2.443,2.443,0,0,1-1.6.583A2.524,2.524,0,0,1,583.3,54.7Zm2.574,1.931a1.892,1.892,0,0,0,1.538-.694V53.466a1.932,1.932,0,0,0-1.538-.684,1.928,1.928,0,0,0,0,3.852Z" />
    <path
       id="path570"
       d="M589.365,56.071a2.413,2.413,0,0,0,1.638.673c.8,0,1.369-.372,1.369-.9,0-.433-.292-.674-.936-.765l-.875-.12c-1-.151-1.488-.593-1.488-1.358,0-.844.784-1.468,1.89-1.468a3.22,3.22,0,0,1,1.982.664l-.393.5a2.82,2.82,0,0,0-1.629-.564c-.694,0-1.167.342-1.167.835,0,.432.273.644.936.744l.875.121c1.006.14,1.508.593,1.508,1.367,0,.875-.885,1.539-2.041,1.539a3.062,3.062,0,0,1-2.121-.785Z" />
    <path
       id="path572"
       d="M530.307,67.88c0-.946.774-1.539,2.011-1.539a3.265,3.265,0,0,1,1.478.342v-.664c0-.8-.463-1.217-1.338-1.217a3.338,3.338,0,0,0-1.578.443l-.282-.573a4.281,4.281,0,0,1,1.931-.5c1.277,0,1.991.623,1.991,1.75v3.388H533.8v-.492a2.4,2.4,0,0,1-1.629.583C531.061,69.4,530.307,68.784,530.307,67.88Zm1.99.935a2.009,2.009,0,0,0,1.5-.584v-.945a2.465,2.465,0,0,0-1.458-.4c-.8,0-1.317.382-1.317.976C531.021,68.423,531.543,68.815,532.3,68.815Z" />
    <path
       id="path574"
       d="M535.764,64.27h.744v.593a1.992,1.992,0,0,1,1.589-.694,1.856,1.856,0,0,1,1.941,1.951v3.187H539.3V66.271a1.327,1.327,0,0,0-1.407-1.449,1.566,1.566,0,0,0-1.388.775v3.71h-.744Z" />
    <path
       id="path576"
       d="M545.213,68.775a2.346,2.346,0,0,1-1.629.613,2.6,2.6,0,1,1,1.619-4.626V62.268l.744-.171v7.21h-.734Zm-1.558-.041a1.951,1.951,0,0,0,1.548-.7V65.536a1.992,1.992,0,0,0-1.548-.694,1.862,1.862,0,0,0-1.87,1.931A1.888,1.888,0,0,0,543.655,68.734Z" />
    <path
       id="path578"
       d="M549.373,64.27h.733v.543a2.3,2.3,0,0,1,1.629-.624,2.6,2.6,0,1,1-1.618,4.615v2.565h-.744Zm.744,1.277V68.04a1.986,1.986,0,0,0,1.547.694,1.947,1.947,0,0,0,0-3.892A1.95,1.95,0,0,0,550.117,65.547Z" />
    <path
       id="path580"
       d="M555.3,64.27h.744v.714a1.572,1.572,0,0,1,1.408-.825,1.375,1.375,0,0,1,.472.07v.684a1.635,1.635,0,0,0-.522-.091,1.426,1.426,0,0,0-1.358,1.036v3.449H555.3Z" />
    <path
       id="path582"
       d="M560.76,64.169a2.62,2.62,0,1,1-2.574,2.614A2.567,2.567,0,0,1,560.76,64.169Zm1.83,2.614a1.839,1.839,0,1,0-1.83,1.961A1.871,1.871,0,0,0,562.59,66.783Z" />
    <path
       id="path584"
       d="M563.341,71.339v-.624a1.41,1.41,0,0,0,.372.04c.462,0,.644-.2.644-.684v-5.8h.744v5.862a1.164,1.164,0,0,1-1.3,1.267A1.794,1.794,0,0,1,563.341,71.339Zm.885-8.538a.5.5,0,0,1,.5-.5.5.5,0,0,1,.5.5.5.5,0,0,1-.5.5A.511.511,0,0,1,564.226,62.8Z" />
    <path
       id="path586"
       d="M568.729,69.4a2.568,2.568,0,0,1-2.594-2.615,2.521,2.521,0,0,1,2.484-2.594A2.472,2.472,0,0,1,571,66.783v.232H566.87a1.891,1.891,0,0,0,1.889,1.729,2.192,2.192,0,0,0,1.388-.463l.463.494A2.991,2.991,0,0,1,568.729,69.4Zm-1.84-2.976h3.369a1.688,1.688,0,0,0-3.369,0Z" />
    <path
       id="path588"
       d="M575.867,68.091l.462.5a2.818,2.818,0,0,1-1.951.8,2.615,2.615,0,0,1,0-5.229,2.866,2.866,0,0,1,1.971.794l-.473.544a2.066,2.066,0,0,0-1.488-.654,1.938,1.938,0,0,0,.01,3.871A2.058,2.058,0,0,0,575.867,68.091Z" />
    <path
       id="path590"
       d="M577.924,64.9h-1.086V64.27h1.086V62.992l.735-.191V64.27h1.518V64.9h-1.518V67.99c0,.543.22.754.774.754a1.785,1.785,0,0,0,.733-.131v.654a2.828,2.828,0,0,1-.884.131c-.875,0-1.358-.423-1.358-1.217Z" />
    <path
       id="path592"
       d="M581.009,68.131a2.414,2.414,0,0,0,1.639.673c.8,0,1.368-.372,1.368-.9,0-.433-.292-.674-.935-.765l-.875-.12c-1-.151-1.489-.593-1.489-1.358,0-.844.784-1.468,1.891-1.468a3.219,3.219,0,0,1,1.981.664l-.392.5a2.822,2.822,0,0,0-1.629-.564c-.695,0-1.167.342-1.167.835,0,.432.272.644.935.744l.875.121c1.006.141,1.508.593,1.508,1.368,0,.874-.885,1.538-2.041,1.538a3.062,3.062,0,0,1-2.121-.785Z" />
  </g>
  <g
     id="g600">
    <path
       id="path596"
       d="M536.97,19.2V30.5c0,6.243,9.16,11.3,20.46,11.3s20.461-5.06,20.461-11.3V19.2"
       class="cls-13" />
    <ellipse
       id="ellipse598"
       ry="11.304"
       rx="20.461"
       cy="19.199"
       cx="557.43"
       class="cls-13" />
  </g>
  <g
     id="g620">
    <path
       id="path602"
       d="M534.814,203.992l-1.519-7.039h.786l1.2,5.812,1.739-5.812h.754l1.74,5.792,1.206-5.792h.755l-1.518,7.039h-.785l-1.78-5.963-1.79,5.963Z" />
    <path
       id="path604"
       d="M544.323,198.854a2.619,2.619,0,1,1-2.575,2.614A2.567,2.567,0,0,1,544.323,198.854Zm1.83,2.614a1.839,1.839,0,1,0-1.83,1.961A1.873,1.873,0,0,0,546.153,201.468Z" />
    <path
       id="path606"
       d="M547.919,198.954h.745v.714a1.569,1.569,0,0,1,1.407-.825,1.35,1.35,0,0,1,.472.071v.684a1.608,1.608,0,0,0-.522-.091,1.423,1.423,0,0,0-1.357,1.036v3.449h-.745Z" />
    <path
       id="path608"
       d="M551.4,196.953l.744-.171v4.445l2.634-2.273h.9l-2.765,2.393,2.9,2.645h-1.016l-2.654-2.413v2.413H551.4Z" />
    <path
       id="path610"
       d="M556.22,202.816a2.414,2.414,0,0,0,1.639.673c.8,0,1.368-.372,1.368-.905,0-.432-.292-.674-.936-.764l-.875-.121c-1-.15-1.488-.593-1.488-1.358,0-.844.784-1.467,1.891-1.467a3.224,3.224,0,0,1,1.981.663l-.392.5a2.83,2.83,0,0,0-1.629-.563c-.7,0-1.167.342-1.167.835,0,.432.272.643.935.744l.875.12c1.006.141,1.508.594,1.508,1.368,0,.875-.885,1.538-2.041,1.538a3.061,3.061,0,0,1-2.121-.784Z" />
    <path
       id="path612"
       d="M560.763,198.954h.734v.543a2.3,2.3,0,0,1,1.628-.623,2.6,2.6,0,1,1-1.618,4.615v2.564h-.744Zm.744,1.277v2.494a1.992,1.992,0,0,0,1.548.694,1.948,1.948,0,0,0,0-3.892A1.954,1.954,0,0,0,561.507,200.231Z" />
    <path
       id="path614"
       d="M566.471,202.564c0-.945.775-1.538,2.011-1.538a3.265,3.265,0,0,1,1.478.341V200.7c0-.805-.462-1.217-1.337-1.217a3.348,3.348,0,0,0-1.579.442l-.282-.573a4.3,4.3,0,0,1,1.931-.5c1.277,0,1.991.623,1.991,1.749v3.389h-.724V203.5a2.4,2.4,0,0,1-1.629.583C567.225,204.082,566.471,203.469,566.471,202.564Zm1.99.935a2.009,2.009,0,0,0,1.5-.583v-.945a2.458,2.458,0,0,0-1.458-.4c-.8,0-1.317.381-1.317.975C567.185,203.107,567.707,203.5,568.461,203.5Z" />
    <path
       id="path616"
       d="M575.749,202.775l.462.5a2.813,2.813,0,0,1-1.95.8,2.614,2.614,0,0,1,0-5.228,2.864,2.864,0,0,1,1.971.794l-.473.543a2.07,2.07,0,0,0-1.488-.654,1.938,1.938,0,0,0,.01,3.872A2.055,2.055,0,0,0,575.749,202.775Z" />
    <path
       id="path618"
       d="M579.246,204.082a2.567,2.567,0,0,1-2.594-2.614,2.521,2.521,0,0,1,2.483-2.594,2.472,2.472,0,0,1,2.384,2.594v.231h-4.133a1.893,1.893,0,0,0,1.89,1.73,2.194,2.194,0,0,0,1.388-.463l.462.493A2.982,2.982,0,0,1,579.246,204.082Zm-1.84-2.976h3.369a1.688,1.688,0,0,0-3.369,0Z" />
  </g>
  <g
     id="g626">
    <path
       id="path622"
       d="M536.97,165.944v11.3c0,6.243,9.16,11.3,20.46,11.3s20.461-5.061,20.461-11.3v-11.3"
       class="cls-13" />
    <ellipse
       id="ellipse624"
       ry="11.304"
       rx="20.461"
       cy="165.944"
       cx="557.43"
       class="cls-13" />
  </g>
  <g
     id="g670">
    <path
       id="path628"
       d="M523.261,121.688h.835L526.64,128l2.584-6.315h.784l-2.926,7.039h-.935Z" />
    <path
       id="path630"
       d="M532.4,128.818A2.568,2.568,0,0,1,529.8,126.2a2.521,2.521,0,0,1,2.484-2.594,2.472,2.472,0,0,1,2.383,2.594v.232h-4.132a1.891,1.891,0,0,0,1.889,1.729,2.192,2.192,0,0,0,1.388-.463l.463.494A2.991,2.991,0,0,1,532.4,128.818Zm-1.84-2.977h3.369a1.688,1.688,0,0,0-3.369,0Z" />
    <path
       id="path632"
       d="M535.7,123.69h.744v.714a1.569,1.569,0,0,1,1.407-.826,1.384,1.384,0,0,1,.473.071v.684a1.646,1.646,0,0,0-.523-.091,1.424,1.424,0,0,0-1.357,1.036v3.449H535.7Z" />
    <path
       id="path634"
       d="M539.06,127.551a2.414,2.414,0,0,0,1.639.673c.8,0,1.368-.372,1.368-.9,0-.433-.292-.674-.936-.765l-.875-.12c-1-.152-1.488-.594-1.488-1.359,0-.843.784-1.467,1.891-1.467a3.219,3.219,0,0,1,1.981.664l-.392.5a2.825,2.825,0,0,0-1.629-.564c-.7,0-1.167.342-1.167.835,0,.432.272.644.935.744l.875.12c1.006.141,1.508.594,1.508,1.368,0,.875-.885,1.539-2.041,1.539a3.062,3.062,0,0,1-2.121-.785Z" />
    <path
       id="path636"
       d="M543.472,122.221a.505.505,0,0,1,.5-.5.5.5,0,0,1,.5.5.505.505,0,0,1-.5.5A.512.512,0,0,1,543.472,122.221Zm.875,6.506H543.6V123.69h.744Z" />
    <path
       id="path638"
       d="M547.956,123.589a2.619,2.619,0,1,1-2.574,2.614A2.567,2.567,0,0,1,547.956,123.589Zm1.831,2.614a1.839,1.839,0,1,0-1.831,1.961A1.873,1.873,0,0,0,549.787,126.2Z" />
    <path
       id="path640"
       d="M551.553,123.69h.744v.592a1.994,1.994,0,0,1,1.589-.693,1.855,1.855,0,0,1,1.941,1.95v3.188h-.735v-3.036a1.326,1.326,0,0,0-1.407-1.449,1.566,1.566,0,0,0-1.388.775v3.71h-.744Z" />
    <path
       id="path642"
       d="M564.953,127.158l.5.523a3.82,3.82,0,0,1-2.765,1.157,3.631,3.631,0,1,1,0-7.261,3.782,3.782,0,0,1,2.785,1.157l-.513.543a3.069,3.069,0,0,0-2.272-.986,2.916,2.916,0,0,0,.019,5.832A3.012,3.012,0,0,0,564.953,127.158Z" />
    <path
       id="path644"
       d="M568.629,123.589a2.619,2.619,0,1,1-2.574,2.614A2.567,2.567,0,0,1,568.629,123.589Zm1.83,2.614a1.839,1.839,0,1,0-1.83,1.961A1.872,1.872,0,0,0,570.459,126.2Z" />
    <path
       id="path646"
       d="M572.226,123.69h.744v.592a1.994,1.994,0,0,1,1.589-.693,1.855,1.855,0,0,1,1.94,1.95v3.188h-.734v-3.036a1.326,1.326,0,0,0-1.407-1.449,1.566,1.566,0,0,0-1.388.775v3.71h-.744Z" />
    <path
       id="path648"
       d="M578.165,124.322H577.08v-.632h1.085v-1.278l.735-.191v1.469h1.518v.632H578.9v3.087c0,.543.221.755.774.755a1.786,1.786,0,0,0,.734-.131v.654a2.839,2.839,0,0,1-.885.131c-.875,0-1.358-.423-1.358-1.217Z" />
    <path
       id="path650"
       d="M581.21,123.69h.745v.714a1.568,1.568,0,0,1,1.407-.826,1.374,1.374,0,0,1,.472.071v.684a1.635,1.635,0,0,0-.522-.091,1.424,1.424,0,0,0-1.357,1.036v3.449h-.745Z" />
    <path
       id="path652"
       d="M586.669,123.589A2.619,2.619,0,1,1,584.1,126.2,2.567,2.567,0,0,1,586.669,123.589Zm1.83,2.614a1.839,1.839,0,1,0-1.83,1.961A1.872,1.872,0,0,0,588.5,126.2Z" />
    <path
       id="path654"
       d="M591.01,128.727h-.744v-7.039l.744-.171Z" />
    <path
       id="path656"
       d="M539.241,139.047a3.311,3.311,0,0,0,2.464,1.167c1.106,0,1.89-.573,1.89-1.388,0-.724-.463-1.076-1.619-1.267l-1.016-.16c-1.357-.222-1.98-.785-1.98-1.781,0-1.166,1-1.961,2.474-1.961a4.635,4.635,0,0,1,2.775.936l-.442.6a3.89,3.89,0,0,0-2.364-.875c-1.006,0-1.689.5-1.689,1.237,0,.654.4.975,1.428,1.137l1,.161c1.539.251,2.2.834,2.2,1.93,0,1.237-1.107,2.1-2.7,2.1a3.972,3.972,0,0,1-2.946-1.308Z" />
    <path
       id="path658"
       d="M546.548,140.777l-2.051-5.028h.825l1.629,4.133,1.759-4.133h.8l-2.5,5.792c-.432.976-.9,1.367-1.71,1.367a1.955,1.955,0,0,1-.472-.049v-.674a1.721,1.721,0,0,0,.422.04c.453,0,.764-.251,1-.784Z" />
    <path
       id="path660"
       d="M550.146,139.611a2.414,2.414,0,0,0,1.639.673c.8,0,1.368-.372,1.368-.905,0-.433-.292-.674-.936-.764l-.875-.121c-1-.15-1.488-.592-1.488-1.357,0-.845.784-1.468,1.891-1.468a3.224,3.224,0,0,1,1.981.663l-.393.5a2.825,2.825,0,0,0-1.628-.563c-.7,0-1.167.342-1.167.835,0,.432.272.643.935.744l.875.121c1.006.14,1.508.593,1.508,1.367,0,.875-.885,1.538-2.041,1.538a3.061,3.061,0,0,1-2.121-.784Z" />
    <path
       id="path662"
       d="M555.211,136.383h-1.086v-.634h1.086v-1.277l.735-.191v1.468h1.518v.634h-1.518v3.087c0,.543.22.754.774.754a1.789,1.789,0,0,0,.734-.131v.654a2.868,2.868,0,0,1-.885.13c-.875,0-1.358-.422-1.358-1.217Z" />
    <path
       id="path664"
       d="M560.457,140.877a2.566,2.566,0,0,1-2.593-2.614,2.52,2.52,0,0,1,2.483-2.594,2.472,2.472,0,0,1,2.384,2.594v.231H558.6a1.893,1.893,0,0,0,1.89,1.73,2.189,2.189,0,0,0,1.387-.463l.463.493A2.983,2.983,0,0,1,560.457,140.877Zm-1.839-2.975h3.369a1.688,1.688,0,0,0-3.369,0Z" />
    <path
       id="path666"
       d="M563.764,135.749h.744v.553a1.887,1.887,0,0,1,1.478-.653,1.765,1.765,0,0,1,1.589.915,1.971,1.971,0,0,1,1.729-.915,1.812,1.812,0,0,1,1.851,1.951v3.187h-.735V137.75a1.283,1.283,0,0,0-1.306-1.448,1.518,1.518,0,0,0-1.338.825,2.364,2.364,0,0,1,.051.473v3.187h-.735V137.75a1.281,1.281,0,0,0-1.3-1.448,1.472,1.472,0,0,0-1.287.734v3.751h-.744Z" />
    <path
       id="path668"
       d="M572.336,139.611a2.414,2.414,0,0,0,1.639.673c.8,0,1.368-.372,1.368-.905,0-.433-.292-.674-.935-.764l-.875-.121c-1-.15-1.489-.592-1.489-1.357,0-.845.785-1.468,1.891-1.468a3.224,3.224,0,0,1,1.981.663l-.392.5a2.828,2.828,0,0,0-1.629-.563c-.694,0-1.166.342-1.166.835,0,.432.271.643.935.744l.875.121c1,.14,1.507.593,1.507,1.367,0,.875-.884,1.538-2.041,1.538a3.061,3.061,0,0,1-2.121-.784Z" />
  </g>
  <g
     id="g676">
    <path
       id="path672"
       d="M536.97,90.679v11.3c0,6.243,9.16,11.3,20.46,11.3s20.461-5.061,20.461-11.3v-11.3"
       class="cls-13" />
    <ellipse
       id="ellipse674"
       ry="11.304"
       rx="20.461"
       cy="90.679"
       cx="557.43"
       class="cls-13" />
  </g>
  <g
     id="g696">
    <path
       id="path678"
       d="M392.428,415.953l-1.518-7.039h.785l1.2,5.813,1.739-5.813h.755l1.739,5.792,1.207-5.792h.754l-1.518,7.039h-.784L395,409.99l-1.79,5.963Z" />
    <path
       id="path680"
       d="M401.937,410.815a2.62,2.62,0,1,1-2.574,2.614A2.567,2.567,0,0,1,401.937,410.815Zm1.83,2.614a1.839,1.839,0,1,0-1.83,1.961A1.872,1.872,0,0,0,403.767,413.429Z" />
    <path
       id="path682"
       d="M405.534,410.915h.744v.714a1.572,1.572,0,0,1,1.407-.824,1.385,1.385,0,0,1,.473.07v.684a1.617,1.617,0,0,0-.523-.09,1.423,1.423,0,0,0-1.357,1.035v3.449h-.744Z" />
    <path
       id="path684"
       d="M409.01,408.914l.744-.171v4.445l2.634-2.273h.905l-2.764,2.394,2.895,2.644h-1.015l-2.655-2.413v2.413h-.744Z" />
    <path
       id="path686"
       d="M413.834,414.777a2.414,2.414,0,0,0,1.639.673c.805,0,1.368-.372,1.368-.9,0-.432-.292-.673-.935-.764l-.875-.121c-1-.15-1.489-.592-1.489-1.357,0-.845.785-1.468,1.891-1.468a3.224,3.224,0,0,1,1.981.663l-.392.5a2.826,2.826,0,0,0-1.629-.562c-.694,0-1.166.341-1.166.834,0,.432.271.643.935.744l.875.121c1,.141,1.507.593,1.507,1.367,0,.875-.884,1.539-2.041,1.539a3.066,3.066,0,0,1-2.121-.784Z" />
    <path
       id="path688"
       d="M418.377,410.915h.734v.543a2.306,2.306,0,0,1,1.629-.623,2.6,2.6,0,1,1-1.618,4.615v2.565h-.745Zm.745,1.278v2.494a1.991,1.991,0,0,0,1.547.693,1.948,1.948,0,0,0,0-3.892A1.95,1.95,0,0,0,419.122,412.193Z" />
    <path
       id="path690"
       d="M424.085,414.526c0-.946.775-1.539,2.011-1.539a3.272,3.272,0,0,1,1.479.342v-.664c0-.8-.463-1.217-1.338-1.217a3.335,3.335,0,0,0-1.578.443l-.283-.573a4.284,4.284,0,0,1,1.931-.5c1.277,0,1.991.624,1.991,1.75v3.388h-.723v-.493a2.4,2.4,0,0,1-1.629.584C424.839,416.044,424.085,415.431,424.085,414.526Zm1.991.934a2.012,2.012,0,0,0,1.5-.583v-.945a2.465,2.465,0,0,0-1.458-.4c-.805,0-1.318.383-1.318.976C424.8,415.069,425.322,415.46,426.076,415.46Z" />
    <path
       id="path692"
       d="M433.364,414.737l.462.5a2.818,2.818,0,0,1-1.951.805,2.615,2.615,0,0,1,0-5.229,2.863,2.863,0,0,1,1.971.8l-.473.543a2.067,2.067,0,0,0-1.488-.655,1.938,1.938,0,0,0,.01,3.872A2.058,2.058,0,0,0,433.364,414.737Z" />
    <path
       id="path694"
       d="M436.86,416.044a2.568,2.568,0,0,1-2.594-2.615,2.521,2.521,0,0,1,2.483-2.594,2.473,2.473,0,0,1,2.384,2.594v.231H435a1.893,1.893,0,0,0,1.89,1.73,2.2,2.2,0,0,0,1.388-.462l.463.492A2.982,2.982,0,0,1,436.86,416.044Zm-1.84-2.976h3.369a1.688,1.688,0,0,0-3.369,0Z" />
  </g>
  <g
     id="g702">
    <path
       id="path698"
       d="M394.584,377.905v11.3c0,6.242,9.16,11.3,20.46,11.3s20.461-5.061,20.461-11.3v-11.3"
       class="cls-13" />
    <ellipse
       id="ellipse700"
       ry="11.304"
       rx="20.461"
       cy="377.905"
       cx="415.044"
       class="cls-13" />
  </g>
  <g
     id="g708">
    <polyline
       id="polyline704"
       points="486.749 90.469 505.981 90.469 505.981 24.026 520.815 24.026"
       class="cls-5" />
    <polygon
       id="polygon706"
       points="519.356 29.012 527.991 24.026 519.356 19.04 519.356 29.012"
       class="cls-6" />
  </g>
  <g
     id="g714">
    <polyline
       id="polyline710"
       points="486.749 105.947 505.981 105.947 505.981 172.39 520.815 172.39"
       class="cls-5" />
    <polygon
       id="polygon712"
       points="519.356 177.376 527.991 172.391 519.356 167.404 519.356 177.376"
       class="cls-6" />
  </g>
  <g
     id="g722">
    <rect
       id="rect716"
       height="13.75"
       width="55"
       y="42.303"
       x="223.491"
       class="cls-13" />
    <line
       id="line718"
       y2="48.2"
       x2="272.611"
       y1="48.2"
       x1="272.611"
       class="cls-10" />
    <line
       id="line720"
       y2="50.16"
       x2="238.476"
       y1="50.16"
       x1="230.226"
       class="cls-14" />
  </g>
  <g
     id="g728">
    <line
       id="line724"
       y2="98.208"
       x2="520.815"
       y1="98.208"
       x1="486.749"
       class="cls-5" />
    <polygon
       id="polygon726"
       points="519.356 103.194 527.991 98.209 519.356 93.222 519.356 103.194"
       class="cls-6" />
  </g>
</svg>
